<?xml version="1.0" standalone="no"?>
<!DOCTYPE svg PUBLIC "-//W3C//DTD SVG 20010904//EN"
 "http://www.w3.org/TR/2001/REC-SVG-20010904/DTD/svg10.dtd">
<svg version="1.0" xmlns="http://www.w3.org/2000/svg"
 width="1000.000000pt" height="1000.000000pt" viewBox="0 0 1000.000000 1000.000000"
 preserveAspectRatio="xMidYMid meet">
<metadata>
Created by potrace 1.14, written by Peter Selinger 2001-2017
</metadata>
<g transform="translate(0.000000,1000.000000) scale(0.100000,-0.100000)"
fill="#000000" stroke="none">
<path d="M0 8770 l0 -1230 36 0 c34 0 84 35 84 59 0 6 14 17 30 26 30 15 30
15 42 -12 7 -15 17 -31 22 -34 5 -4 5 -12 2 -18 -4 -6 -1 -11 7 -11 8 0 32 24
53 53 43 57 77 70 116 43 32 -22 39 -21 81 19 33 31 45 36 98 39 34 2 64 8 68
13 3 6 31 19 63 31 49 19 58 19 69 6 18 -22 -1 -55 -52 -89 -58 -38 -67 -50
-62 -79 5 -24 8 -25 73 -23 81 2 99 -9 84 -50 -7 -20 -21 -32 -50 -42 -39 -14
-44 -13 -78 7 -32 19 -39 20 -52 8 -17 -17 -18 -42 -3 -51 6 -4 14 -17 18 -29
7 -18 2 -25 -33 -47 -22 -14 -68 -36 -101 -48 -33 -12 -74 -33 -91 -46 -55
-42 -185 -115 -205 -115 -13 0 -19 7 -19 23 0 35 -17 48 -49 35 -26 -12 -39
-24 -93 -90 -17 -21 -37 -38 -44 -38 -11 0 -14 -27 -14 -129 l0 -130 38 -3
c39 -3 39 -2 31 -78 -3 -19 -18 -30 -46 -30 l-23 0 0 -185 c0 -171 1 -184 17
-179 45 15 64 30 83 70 17 37 25 44 49 44 17 0 33 5 36 10 3 6 19 10 36 10 22
0 29 -5 29 -19 0 -36 -21 -76 -56 -105 -41 -33 -42 -64 -5 -83 35 -17 45 -39
25 -55 -67 -55 -77 -74 -48 -102 28 -29 77 -20 132 24 53 42 88 51 99 23 4
-11 -4 -24 -26 -42 -18 -14 -53 -46 -77 -71 -53 -55 -51 -52 -95 -89 -32 -27
-38 -40 -54 -115 -12 -58 -25 -94 -41 -111 -14 -15 -28 -49 -35 -87 -9 -45
-21 -71 -41 -91 -27 -28 -28 -32 -28 -128 0 -99 0 -100 23 -93 38 11 55 34 66
86 11 51 26 84 46 104 6 6 28 39 50 73 21 33 42 61 46 61 4 0 13 16 19 34 9
29 8 39 -6 61 -9 14 -17 40 -16 56 1 38 42 94 85 115 18 9 44 27 59 39 33 28
117 69 125 62 6 -7 7 -40 2 -86 -2 -25 -10 -36 -29 -43 -26 -10 -60 -37 -60
-47 0 -3 4 -12 9 -19 7 -11 17 -9 49 13 23 15 46 24 52 20 15 -9 4 -107 -19
-179 -14 -45 -19 -51 -46 -54 -63 -6 -73 -11 -86 -49 -6 -21 -25 -64 -41 -96
-16 -32 -30 -79 -32 -105 -6 -79 -17 -120 -37 -138 -11 -10 -19 -30 -19 -49 0
-29 -14 -56 -86 -165 -13 -19 -33 -62 -44 -95 -11 -33 -33 -77 -48 -99 -15
-22 -28 -53 -28 -70 -1 -17 -2 -41 -3 -53 0 -12 -8 -28 -16 -37 -13 -13 -15
-85 -13 -559 l3 -543 31 8 c22 6 42 24 68 61 36 53 56 123 73 265 5 42 6 42
38 36 38 -7 86 14 109 48 10 13 16 43 16 74 0 38 5 55 20 69 11 10 24 34 29
54 10 41 25 255 26 383 0 96 10 118 43 97 19 -12 21 -23 21 -125 1 -106 12
-164 33 -164 13 0 25 39 33 103 4 31 11 57 16 57 21 0 29 -48 29 -165 0 -89 4
-136 15 -162 19 -45 19 -91 0 -136 -8 -20 -15 -51 -15 -68 0 -19 -10 -44 -25
-63 -60 -72 -104 -135 -124 -174 -11 -22 -25 -43 -31 -47 -5 -3 -10 -22 -10
-40 0 -40 26 -63 81 -69 55 -6 59 -1 59 74 0 76 10 110 41 143 11 12 25 41 32
64 9 36 15 42 44 48 40 7 103 65 103 94 0 12 -7 33 -16 47 -13 19 -15 35 -9
77 10 65 10 132 0 223 -5 49 -4 73 3 78 21 13 42 -50 42 -124 0 -51 6 -86 22
-123 38 -90 60 -82 83 28 36 174 28 347 -22 433 -20 34 -24 52 -20 84 3 26 -1
63 -13 102 -10 34 -22 99 -25 146 -8 99 -24 133 -62 128 -15 -2 -28 2 -30 9
-3 7 7 10 27 9 51 -4 65 23 63 116 -1 45 3 90 8 101 11 19 11 19 30 1 10 -11
29 -39 42 -64 16 -31 31 -46 48 -48 39 -6 43 -18 19 -57 -27 -44 -22 -87 15
-121 22 -20 25 -31 25 -94 0 -45 5 -79 15 -93 17 -26 20 -77 10 -164 -6 -45
-3 -82 10 -137 15 -64 16 -82 5 -120 -7 -25 -10 -55 -7 -68 3 -13 13 -70 21
-128 13 -89 13 -113 2 -155 -19 -71 -9 -90 44 -89 36 1 47 7 76 40 31 36 33
43 28 86 -5 41 -3 49 13 54 10 3 26 10 35 15 10 5 19 9 21 9 2 0 1 -28 -1 -62
-3 -48 -9 -67 -25 -79 -46 -37 25 -93 141 -114 45 -8 92 -20 104 -27 13 -7 39
-17 58 -23 25 -7 36 -17 38 -33 3 -18 -5 -26 -40 -40 -76 -33 -95 -34 -146
-11 -55 26 -150 31 -176 10 -9 -7 -16 -26 -16 -41 0 -21 -14 -41 -51 -77 -48
-46 -89 -64 -89 -38 0 7 -6 23 -12 36 -17 32 -48 26 -71 -13 -17 -29 -17 -31
0 -44 10 -7 26 -14 35 -14 28 0 48 -29 48 -68 0 -30 -6 -42 -34 -64 -23 -18
-40 -45 -51 -79 -10 -29 -28 -68 -41 -87 -13 -19 -24 -43 -24 -53 0 -23 -46
-59 -77 -59 -13 0 -26 -7 -30 -17 -3 -10 -22 -42 -41 -71 -47 -72 -69 -70
-103 6 l-26 57 -25 -41 c-35 -55 -74 -70 -141 -55 -29 6 -65 12 -82 14 -62 5
-38 65 50 123 48 32 58 35 84 26 42 -15 67 -5 85 31 14 31 31 51 72 89 11 10
30 29 43 42 14 14 37 30 52 36 28 12 31 22 45 144 7 53 -2 66 -47 66 -31 0
-49 -17 -49 -47 0 -33 -56 -153 -87 -185 -32 -34 -107 -53 -147 -39 -48 19
-73 13 -100 -22 -14 -17 -55 -48 -92 -67 -62 -32 -69 -39 -80 -79 -14 -49 -27
-61 -66 -61 -25 0 -28 -4 -28 -35 0 -41 -34 -69 -84 -70 l-31 0 -3 -106 -3
-107 31 -11 c18 -6 45 -25 61 -42 26 -28 34 -31 66 -26 21 4 49 15 63 26 48
39 130 82 147 79 14 -3 18 -14 19 -48 1 -63 2 -70 17 -70 16 0 48 34 66 71 7
14 26 30 42 36 19 7 29 18 29 31 0 22 86 117 131 146 25 15 27 15 55 -9 34
-30 54 -29 70 4 16 32 29 38 89 46 27 4 59 15 70 25 11 9 35 20 54 24 18 3 51
22 72 41 22 19 44 35 50 35 6 0 35 11 65 25 43 20 72 25 137 26 45 0 108 4
140 8 32 4 60 5 62 3 6 -7 -16 -45 -34 -60 -9 -7 -44 -25 -77 -41 -34 -16 -72
-39 -85 -52 -13 -13 -39 -34 -57 -47 -19 -12 -45 -36 -59 -53 -25 -29 -29 -30
-82 -24 -47 5 -63 2 -100 -17 -25 -13 -58 -40 -74 -60 -26 -32 -28 -40 -17
-54 22 -26 119 -6 158 33 7 7 23 13 34 13 28 0 84 -44 103 -81 14 -27 14 -33
-1 -65 -18 -37 -77 -84 -105 -84 -19 0 -43 -25 -36 -37 6 -10 101 -9 280 2
136 8 194 -3 231 -44 16 -17 14 -19 -30 -25 -51 -7 -129 -38 -156 -63 -41 -37
-6 -75 82 -89 33 -5 47 -3 68 13 58 43 68 45 94 18 14 -14 39 -28 55 -31 27
-5 34 -1 63 34 17 22 40 42 51 45 26 7 24 22 -6 35 -33 15 -83 15 -125 1 -30
-11 -34 -10 -51 12 -16 22 -16 24 -1 35 10 6 35 14 57 18 22 3 55 9 73 12 19
4 51 1 72 -6 30 -10 52 -10 92 -2 46 9 58 8 94 -10 l41 -20 41 21 c44 22 111
28 142 11 13 -7 30 -6 57 4 39 14 93 11 93 -4 0 -20 -33 -32 -77 -27 -38 4
-56 0 -108 -27 -53 -27 -61 -35 -53 -50 16 -29 -8 -46 -68 -46 -47 0 -54 -3
-54 -19 0 -25 -46 -61 -77 -61 -13 0 -38 7 -55 16 -27 14 -39 15 -87 4 -31 -7
-69 -19 -85 -27 -25 -13 -33 -13 -75 4 -35 15 -55 17 -81 11 -19 -5 -53 -11
-75 -13 -105 -12 -206 -56 -253 -110 -37 -41 -39 -55 -14 -78 23 -21 64 -21
128 -2 61 19 94 18 118 0 24 -18 69 -19 99 -3 20 11 89 23 189 33 20 2 51 11
69 20 21 12 42 15 63 10 37 -9 96 -10 191 -6 39 2 99 0 135 -4 56 -6 77 -4
148 19 50 16 106 26 141 26 150 0 56 -78 -114 -95 -55 -5 -107 -14 -281 -44
-33 -6 -74 -11 -92 -11 -57 0 -175 -22 -276 -51 -54 -16 -105 -29 -113 -29
-13 0 -89 -30 -123 -49 -8 -4 -15 -14 -15 -22 0 -13 -37 -60 -78 -100 -10 -9
-35 -20 -55 -24 -42 -7 -122 -51 -122 -66 0 -5 7 -24 16 -40 15 -29 14 -31
-15 -65 -17 -19 -31 -41 -31 -49 0 -48 92 -61 157 -23 25 15 55 23 88 24 61 1
223 28 329 55 81 21 156 20 184 -3 19 -16 60 27 64 66 4 41 34 45 86 12 54
-34 58 -43 25 -60 -15 -8 -39 -24 -52 -35 -20 -18 -32 -20 -70 -15 -37 5 -54
2 -83 -15 -20 -12 -60 -25 -89 -28 -43 -5 -61 -14 -96 -46 -24 -22 -43 -46
-43 -54 0 -21 45 -106 75 -141 l26 -31 38 25 c31 20 40 33 45 66 6 39 25 68
45 68 18 0 23 -42 11 -105 -12 -62 -11 -65 14 -98 31 -41 32 -50 5 -86 -17
-23 -20 -44 -22 -143 l-1 -116 36 -59 c38 -61 57 -122 58 -180 0 -18 -4 -33
-10 -33 -23 0 -59 24 -71 49 -13 26 -74 93 -165 181 -16 15 -35 35 -42 44 -7
9 -23 16 -35 16 -12 0 -42 14 -66 30 -26 18 -57 30 -76 30 -35 0 -126 58 -136
87 -3 10 1 28 9 40 25 40 113 29 152 -19 8 -11 42 -34 73 -52 40 -22 65 -44
80 -71 24 -42 42 -51 83 -41 19 5 24 13 24 40 0 54 -19 95 -54 112 -17 9 -41
25 -52 36 -12 10 -43 27 -70 37 l-49 19 -3 73 c-2 41 2 99 9 129 7 30 14 61
15 69 5 28 -38 50 -100 51 -57 0 -60 -1 -99 -45 -39 -44 -78 -58 -92 -35 -9
14 -43 12 -76 -5 -73 -38 -86 -42 -119 -38 -27 4 -40 0 -55 -17 -18 -20 -18
-23 -3 -53 9 -18 19 -53 23 -80 13 -97 82 -128 118 -52 9 19 23 35 31 35 12 0
12 -6 0 -37 -7 -21 -18 -37 -23 -35 -6 1 -11 -12 -11 -30 0 -56 -31 -147 -52
-153 -27 -9 -51 -50 -43 -76 4 -11 2 -40 -4 -63 -5 -22 -18 -81 -27 -131 -9
-49 -32 -132 -50 -184 -41 -114 -46 -204 -15 -262 19 -35 19 -79 0 -79 -15 0
-38 -56 -41 -96 -1 -22 -1 -63 0 -91 l2 -53 85 0 c82 0 85 1 91 26 5 20 12 25
34 22 40 -4 78 29 111 97 22 46 39 66 73 86 51 31 59 60 39 139 -11 45 -11 54
3 75 9 14 21 25 26 25 5 0 7 4 3 9 -6 11 32 41 52 41 23 0 14 -30 -12 -42 -14
-6 -27 -21 -30 -32 -14 -72 -14 -86 1 -101 20 -19 19 -19 61 10 46 30 68 21
77 -34 7 -45 2 -61 -32 -113 -36 -56 -9 -81 37 -33 65 69 76 -12 14 -103 -13
-19 -23 -43 -23 -53 0 -18 13 -19 260 -19 249 0 260 1 260 19 0 27 56 71 90
71 35 0 70 -34 70 -67 l0 -23 910 0 910 0 0 23 c0 12 -6 32 -13 43 -6 12 -22
38 -33 59 l-21 39 -18 -27 c-38 -58 -75 -16 -75 85 0 59 -2 68 -18 68 -10 0
-29 -11 -42 -25 -36 -39 -63 -30 -76 25 -9 37 -17 48 -47 62 -32 16 -36 22
-31 45 11 66 -38 69 -60 4 -13 -40 -48 -58 -70 -36 -8 8 -17 43 -21 77 -11
111 -21 124 -91 119 -41 -3 -45 11 -27 86 14 55 14 64 -1 94 -22 45 -20 83 8
116 13 15 26 42 30 59 4 18 15 38 24 46 27 23 94 38 172 38 l73 0 38 43 c21
23 42 45 46 49 4 4 31 29 58 55 54 51 68 62 140 111 48 31 98 42 110 22 12
-20 52 -9 148 40 112 57 165 65 191 29 40 -58 85 -56 142 7 18 19 39 34 47 34
28 0 57 -41 57 -79 0 -30 -5 -38 -30 -49 -47 -21 -41 -56 20 -114 28 -26 53
-48 57 -48 3 0 23 16 44 35 44 39 58 42 119 20 65 -23 74 -20 111 37 19 29 41
53 49 53 14 0 60 -78 60 -103 0 -24 30 -72 45 -72 8 0 27 18 41 40 31 47 58
58 84 35 22 -20 40 -12 40 16 0 14 -9 21 -30 25 -24 5 -32 14 -40 43 -9 32 -8
38 11 54 30 25 52 21 87 -14 l30 -31 100 7 c88 7 104 11 123 31 27 29 53 30
112 4 25 -11 69 -25 99 -30 48 -9 156 -51 263 -101 22 -10 64 -37 94 -59 64
-48 100 -51 203 -18 84 27 90 24 138 -62 19 -35 59 -90 88 -121 52 -57 53 -59
47 -102 -4 -28 -2 -53 5 -66 22 -42 16 -81 -18 -108 -39 -30 -42 -64 -7 -87
32 -21 32 -41 1 -62 -37 -24 -50 -72 -36 -138 6 -30 10 -61 9 -68 -6 -46 2
-66 32 -78 34 -14 64 -53 54 -70 -14 -23 -56 -10 -76 25 -15 25 -30 36 -56 41
-22 4 -50 22 -78 50 -72 74 -121 56 -112 -41 4 -41 2 -55 -8 -55 -21 0 -90 62
-121 110 -26 40 -101 97 -130 99 -34 3 -19 -83 27 -157 19 -31 35 -74 42 -116
l11 -66 298 0 c232 0 298 3 298 13 0 6 4 18 9 26 11 17 51 -2 51 -24 0 -13
112 -15 861 -15 l861 0 -2 87 c-1 49 -2 94 -1 101 1 7 15 12 34 12 41 0 76
-36 84 -86 3 -19 9 -34 13 -34 4 0 10 -18 14 -40 l6 -40 64 0 c55 0 64 3 69
20 7 26 37 26 37 0 0 -20 7 -20 311 -20 302 0 311 1 316 20 7 26 33 26 40 0 5
-17 14 -20 69 -20 53 0 66 3 70 18 17 54 32 58 59 15 19 -30 24 -32 78 -33
l57 0 0 88 c0 86 -1 89 -30 110 -22 17 -30 31 -30 55 0 39 -33 112 -59 135
-24 21 -61 87 -61 109 0 9 9 36 21 59 11 24 24 70 29 102 10 74 47 161 69 164
9 0 26 0 39 -1 22 -2 22 -1 22 154 l0 156 -22 -6 c-52 -15 -84 -71 -102 -175
-5 -26 -17 -44 -48 -68 -45 -34 -55 -37 -78 -22 -11 7 -14 23 -11 62 12 169
-3 523 -23 539 -6 5 -24 19 -40 32 l-30 24 13 59 c25 119 25 125 -11 176 -76
107 -125 166 -149 180 -30 18 -40 44 -28 76 7 18 13 21 41 15 49 -9 63 -19 65
-45 3 -30 23 -68 38 -68 31 0 47 54 23 78 -7 7 -21 12 -33 12 -12 0 -28 12
-38 30 -10 16 -26 30 -36 30 -35 0 -44 25 -36 100 7 67 6 73 -21 112 -42 60
-84 88 -132 88 -31 0 -44 -5 -52 -19 -7 -13 -7 -22 0 -26 5 -3 10 -22 10 -41
0 -26 4 -34 18 -34 22 0 47 -39 34 -52 -6 -6 -15 -2 -24 11 -8 12 -42 35 -74
52 -122 63 -146 78 -188 116 -24 21 -62 49 -86 63 -45 27 -60 47 -70 95 -5 25
-11 31 -40 33 -21 2 -40 13 -52 28 -22 27 -54 30 -121 12 -43 -11 -44 -11 -99
33 -60 48 -138 159 -138 196 0 14 -6 23 -15 23 -28 0 -36 -37 -30 -147 8 -147
10 -152 50 -168 19 -9 36 -24 40 -37 15 -52 28 -78 41 -78 7 0 25 -16 40 -36
15 -19 39 -41 53 -49 37 -19 63 -46 171 -175 108 -129 167 -192 194 -207 17
-9 17 -14 5 -49 -7 -21 -16 -43 -20 -47 -6 -8 -87 69 -164 158 -22 25 -49 53
-59 63 -11 9 -29 28 -40 41 -12 13 -39 43 -61 65 -22 23 -49 59 -60 81 -15 29
-30 43 -55 51 -18 6 -48 28 -64 48 -17 20 -35 36 -40 36 -23 0 -76 75 -101
145 -26 70 -27 80 -17 126 24 101 9 199 -38 266 -17 23 -30 50 -30 60 0 10 -8
40 -17 66 -16 43 -16 51 -2 75 9 17 23 27 38 27 26 0 36 -14 46 -59 3 -16 25
-48 48 -71 29 -28 49 -61 62 -99 15 -45 23 -56 37 -53 13 4 25 -8 44 -44 19
-34 41 -57 73 -75 25 -15 63 -42 83 -62 30 -29 42 -34 66 -29 21 4 35 1 49
-13 35 -32 54 -28 85 17 19 28 40 45 66 53 20 7 41 16 47 21 29 28 34 -10 6
-49 -21 -29 -24 -40 -22 -85 1 -40 121 -164 170 -177 42 -11 77 -8 108 8 12 7
49 12 83 12 l62 0 -6 28 c-4 15 -23 40 -42 56 -19 16 -44 49 -55 75 -27 60
-54 88 -91 96 -19 5 -37 19 -50 41 -11 19 -32 41 -47 49 -14 8 -51 38 -81 66
-45 42 -60 50 -82 45 -34 -7 -59 15 -83 71 -16 38 -16 43 -2 57 9 9 20 16 26
16 22 0 10 41 -23 77 -18 21 -44 67 -56 102 -25 67 -39 79 -120 96 -19 4 -53
23 -76 41 -36 30 -48 34 -98 34 -55 0 -56 0 -56 29 0 16 11 42 24 58 22 26 30
50 27 79 0 6 -28 19 -61 28 -65 19 -71 36 -12 36 25 0 46 -8 65 -24 29 -25 64
-26 147 -5 63 16 100 11 122 -16 11 -14 25 -25 31 -25 47 0 96 -27 142 -77 33
-35 63 -57 85 -63 79 -19 170 -58 206 -88 21 -18 47 -32 57 -32 9 0 37 -20 60
-43 64 -67 85 -72 135 -33 39 30 55 67 33 80 -5 3 -12 18 -16 33 -9 37 -43 73
-70 73 -25 0 -51 21 -84 68 -16 23 -30 32 -50 32 -26 0 -71 31 -71 49 0 15 24
29 63 36 30 6 37 12 37 30 0 28 -28 53 -71 66 -44 12 -76 40 -84 71 -8 32 26
75 68 86 51 13 39 34 -28 52 -82 21 -87 25 -83 74 2 35 0 41 -17 41 -12 0 -25
-11 -33 -27 -9 -19 -27 -31 -63 -43 -63 -21 -108 -15 -142 19 -21 21 -36 26
-76 26 -56 0 -71 13 -46 40 15 16 116 47 138 42 4 -1 7 2 7 8 0 41 206 48 262
9 32 -23 88 -25 127 -4 35 17 65 77 57 111 -7 25 -43 67 -61 70 -5 1 -37 10
-70 19 -120 36 -171 44 -245 39 -113 -7 -119 -7 -135 0 -20 7 -19 60 0 80 27
26 89 37 241 41 129 3 152 2 198 -16 81 -33 193 -51 263 -43 50 5 68 3 88 -10
22 -14 30 -15 52 -4 15 7 27 18 27 23 -1 9 -197 112 -287 150 -22 9 -47 32
-61 53 -13 20 -42 55 -65 77 -23 21 -41 45 -41 53 0 7 -7 26 -15 42 -15 29
-14 30 9 36 27 6 263 -47 336 -76 25 -10 72 -21 105 -25 33 -3 84 -17 114 -31
58 -28 89 -32 164 -20 46 7 47 8 47 42 0 29 -3 34 -23 34 -13 0 -44 14 -70 30
-54 34 -98 46 -209 56 -63 5 -80 11 -97 30 -12 13 -27 24 -35 24 -20 0 -37 25
-30 44 6 17 64 23 64 7 0 -5 9 -7 21 -4 51 14 -26 116 -98 129 -21 3 -49 13
-61 21 -23 14 -23 15 -5 28 10 7 34 16 53 20 19 3 58 13 85 22 50 15 50 15
171 -26 85 -29 137 -41 177 -41 l57 0 0 908 0 907 -47 22 c-27 12 -70 44 -98
70 -27 27 -67 61 -88 77 -21 15 -54 49 -72 75 -18 25 -53 60 -77 77 -24 17
-64 58 -89 90 -25 32 -63 69 -86 82 -25 14 -52 40 -67 66 -18 31 -34 45 -55
49 -17 4 -38 15 -48 26 -84 89 -197 201 -204 201 -5 0 -9 7 -9 16 0 13 6 15
28 9 15 -3 34 -13 42 -20 8 -7 32 -18 52 -23 44 -12 144 -89 210 -160 20 -22
38 -30 79 -35 41 -5 58 -13 74 -33 23 -29 45 -26 45 5 0 26 55 15 79 -15 23
-29 45 -39 152 -64 91 -21 120 -24 157 -14 l22 6 0 319 0 319 -24 0 c-14 0
-36 11 -50 24 -22 20 -26 31 -25 80 1 32 -4 62 -11 71 -7 8 -38 27 -70 41 -54
24 -80 53 -80 88 0 25 36 46 79 46 34 0 47 -5 64 -26 49 -59 67 -74 92 -74
l25 0 0 106 c0 92 -2 105 -16 100 -24 -9 -92 16 -105 40 -15 29 -2 101 22 125
10 10 19 24 19 29 0 6 18 10 40 10 l40 0 0 174 0 174 -25 6 c-14 4 -46 20 -72
36 -26 17 -51 30 -55 30 -5 0 -26 11 -48 25 -28 18 -40 32 -40 49 0 58 87 78
155 34 22 -14 50 -28 62 -32 l23 -7 0 405 0 406 -2441 0 -2442 0 6 -42 c3 -24
11 -44 17 -46 6 -2 30 -18 53 -36 55 -42 66 -81 43 -160 -17 -58 -18 -58 -49
-52 -17 3 -48 14 -70 23 l-38 17 0 81 c1 44 -2 110 -5 148 l-6 67 -1430 0
-1429 0 3 -22 c2 -16 17 -30 45 -43 23 -11 42 -25 43 -32 0 -20 -53 -24 -99
-8 -24 8 -65 15 -91 15 -78 0 -110 11 -153 51 l-40 39 -959 0 -958 0 0 -1230z
m5540 1124 c0 -44 -9 -64 -26 -57 -15 5 -19 59 -7 102 6 23 7 23 20 6 7 -11
13 -33 13 -51z m-4672 -28 c4 -20 -26 -46 -45 -39 -9 4 -11 13 -7 27 12 38 46
46 52 12z m4094 0 c20 -15 48 -87 48 -124 0 -22 -3 -24 -30 -18 -70 13 -106
81 -74 134 16 25 31 27 56 8z m-216 -21 c13 -52 -23 -82 -58 -47 -31 30 -18
72 22 72 23 0 31 -5 36 -25z m-2671 -37 c25 -23 39 -28 85 -29 81 0 124 -18
128 -51 3 -25 1 -27 -55 -33 -32 -4 -67 -9 -78 -11 -19 -4 -191 12 -232 21
-18 4 -21 10 -17 33 4 21 -1 34 -21 54 -31 31 -24 37 49 48 70 9 105 2 141
-32z m-1575 18 c0 -8 -4 -18 -10 -21 -5 -3 -10 3 -10 14 0 12 5 21 10 21 6 0
10 -6 10 -14z m240 -21 c10 -12 10 -19 2 -27 -13 -13 -47 16 -37 32 9 14 21
12 35 -5z m3800 -114 c5 -11 10 -32 10 -46 0 -21 -4 -26 -16 -21 -9 3 -18 6
-20 6 -3 0 -9 12 -14 26 -17 43 19 74 40 35z m931 -2 c24 -47 -13 -117 -47
-88 -14 12 -19 65 -8 93 9 23 41 20 55 -5z m442 -140 c13 -6 32 -26 42 -45 14
-27 28 -37 63 -46 l44 -11 -7 -52 c-7 -58 -2 -65 56 -85 35 -13 38 -12 66 17
39 39 67 46 90 21 10 -11 18 -27 18 -36 0 -10 7 -16 18 -16 9 1 17 -2 17 -7 0
-5 -8 -9 -18 -9 -10 0 -35 -16 -55 -35 -29 -27 -37 -43 -37 -70 0 -27 4 -35
18 -35 11 0 24 11 30 24 9 21 16 23 54 19 40 -5 45 -3 56 21 18 41 15 59 -19
89 -48 42 -10 68 42 29 13 -10 45 -30 71 -45 43 -25 51 -26 95 -17 26 6 79 25
116 42 67 31 69 31 115 17 38 -13 55 -13 92 -4 71 18 197 27 219 16 10 -6 25
-31 32 -57 8 -26 20 -49 27 -51 7 -3 28 2 48 12 40 19 53 13 58 -26 5 -43 17
-59 58 -71 38 -11 42 -11 63 14 20 23 55 48 69 48 14 0 18 -81 7 -152 -10 -72
-14 -83 -46 -111 -47 -43 -51 -78 -9 -90 32 -9 58 -45 46 -64 -14 -22 -48 -24
-67 -3 -17 19 -18 19 -37 -6 -18 -22 -19 -29 -8 -67 7 -23 15 -69 17 -103 5
-60 4 -61 -27 -74 -33 -13 -39 -12 -105 29 -39 24 -78 11 -99 -33 -8 -18 -24
-40 -35 -50 -11 -10 -18 -23 -15 -27 9 -16 47 -10 68 10 12 11 36 23 55 26 19
3 42 10 52 15 24 13 29 13 29 -4 0 -7 7 -19 16 -26 8 -8 14 -25 13 -39 -5 -51
9 -69 67 -86 43 -12 63 -14 88 -5 35 11 45 9 116 -22 59 -26 72 -42 59 -76
-20 -52 -44 -65 -109 -57 -53 6 -59 5 -70 -14 -14 -28 1 -56 43 -77 18 -9 40
-23 49 -32 26 -22 106 -22 122 1 35 46 73 -10 61 -89 -3 -26 -16 -56 -27 -68
-11 -11 -26 -30 -34 -42 -14 -21 -13 -25 44 -167 9 -21 32 -51 52 -67 26 -21
44 -49 64 -99 31 -79 65 -115 127 -131 44 -12 58 -33 41 -61 -17 -27 -15 -39
18 -88 16 -24 28 -47 25 -51 -9 -15 20 -28 77 -34 72 -9 139 -43 156 -79 26
-55 -26 -120 -66 -84 -9 8 -34 24 -54 36 l-37 20 -21 -26 c-11 -14 -20 -31
-20 -37 0 -24 28 -50 71 -66 l44 -18 7 -73 c4 -46 3 -88 -4 -111 -9 -32 -8
-43 7 -73 19 -33 19 -35 1 -72 -27 -55 -35 -212 -12 -244 22 -32 20 -51 -8
-108 -14 -26 -28 -76 -31 -112 -8 -72 -39 -153 -56 -147 -7 2 -22 33 -33 67
-25 75 -49 97 -72 66 -12 -15 -14 -35 -11 -80 5 -56 -2 -85 -27 -111 -55 -57
-68 -88 -46 -110 7 -7 4 -16 -9 -29 -20 -17 -21 -17 -38 14 -12 20 -26 31 -40
31 -32 0 -39 -34 -14 -66 12 -15 21 -40 21 -57 0 -46 -78 -201 -119 -234 -10
-9 -14 -30 -12 -72 2 -49 -1 -59 -16 -63 -21 -6 -83 -123 -83 -157 0 -13 9
-25 23 -30 13 -5 29 -17 37 -26 13 -15 11 -23 -13 -66 -29 -52 -35 -97 -15
-117 16 -16 77 -15 83 1 8 22 17 180 15 270 -1 71 2 93 15 107 16 18 19 18 53
2 42 -19 62 -36 62 -51 0 -6 9 -11 20 -11 10 0 23 -7 27 -15 5 -8 27 -15 51
-17 23 -2 42 -7 42 -12 0 -5 29 -6 65 -4 81 7 88 -2 68 -90 -12 -51 -19 -65
-39 -72 -31 -12 -53 -3 -87 35 -56 63 -107 15 -107 -99 0 -30 5 -58 10 -61 6
-3 10 -1 10 4 0 20 88 13 110 -9 36 -36 20 -94 -33 -125 -41 -24 -56 -44 -57
-73 0 -13 -5 -33 -12 -45 -6 -12 -16 -46 -22 -77 -7 -37 -16 -55 -26 -55 -8 0
-20 -4 -27 -8 -6 -4 -14 -1 -16 5 -3 7 -6 1 -6 -13 -1 -32 -37 -108 -63 -132
-18 -17 -21 -18 -37 -3 -10 9 -35 16 -58 16 -36 0 -42 4 -53 30 -7 16 -20 39
-30 50 -16 19 -20 19 -46 5 -16 -8 -48 -15 -71 -15 -47 0 -54 -8 -24 -27 11
-7 25 -29 31 -50 7 -21 24 -57 37 -80 21 -36 24 -50 18 -95 -6 -48 -4 -57 24
-95 26 -36 36 -42 72 -45 58 -4 71 -27 43 -76 -12 -20 -30 -68 -39 -105 -9
-37 -38 -104 -63 -148 -26 -45 -61 -107 -78 -138 -17 -31 -47 -79 -66 -107
-86 -122 -148 -266 -148 -343 0 -27 9 -79 21 -117 13 -44 18 -78 14 -98 -4
-17 -7 -52 -8 -78 -2 -41 -6 -49 -37 -70 -41 -28 -48 -52 -24 -79 12 -14 20
-48 26 -117 5 -53 16 -110 24 -125 20 -41 18 -49 -21 -80 -40 -32 -43 -47 -15
-72 26 -23 19 -31 -32 -39 -72 -12 -83 -33 -49 -99 28 -55 31 -77 16 -107 -12
-23 -12 -30 -1 -45 10 -14 22 -17 59 -13 50 6 141 -15 222 -51 26 -12 56 -21
66 -21 11 0 36 -9 56 -20 21 -11 43 -20 49 -20 6 0 17 -7 24 -15 17 -20 -13
-32 -43 -16 -12 6 -37 15 -55 20 -27 8 -36 6 -61 -15 -16 -13 -32 -24 -36 -24
-4 0 -30 11 -58 25 -36 18 -59 24 -79 20 -16 -4 -35 -2 -42 4 -8 7 -37 14 -65
18 -51 6 -52 5 -64 -26 -12 -34 -25 -37 -92 -21 -55 13 -69 -2 -57 -57 11 -50
7 -58 -42 -78 -37 -15 -38 -18 -32 -53 15 -83 14 -86 -24 -92 -58 -10 -63 -17
-56 -71 7 -48 6 -50 -27 -69 -19 -11 -39 -31 -45 -45 -17 -36 -60 -34 -98 6
-40 43 -112 91 -124 84 -6 -3 -10 -18 -10 -33 0 -15 -4 -33 -9 -41 -10 -16
-105 -33 -138 -25 -13 4 -33 0 -46 -8 -13 -9 -62 -18 -127 -22 -151 -10 -159
-9 -204 21 -31 21 -56 28 -106 31 -51 3 -70 9 -90 27 -14 13 -45 32 -70 43
-25 11 -58 34 -75 52 -16 18 -55 50 -85 73 -30 22 -65 53 -78 68 -32 40 -207
158 -266 180 -64 24 -82 42 -101 100 -14 41 -14 54 -4 83 10 28 10 45 -1 89
-20 86 -10 134 45 213 27 38 57 91 67 119 10 27 31 59 47 72 19 15 30 35 35
62 5 31 15 47 48 73 57 44 65 51 122 122 27 34 57 79 67 101 31 70 91 115 152
115 13 0 38 7 56 16 18 9 62 20 97 24 42 5 79 17 102 33 21 13 48 28 61 32 13
4 42 24 65 45 23 21 66 53 96 73 53 33 180 158 180 177 0 4 11 21 24 37 13 16
37 69 53 118 24 74 28 98 21 135 -9 52 -37 80 -78 80 -46 0 -57 -9 -114 -89
-70 -98 -171 -204 -188 -199 -15 5 -35 42 -42 78 -4 20 -22 34 -80 63 -73 37
-75 37 -193 37 -93 -1 -129 -5 -173 -21 -30 -11 -86 -29 -124 -40 -68 -20 -70
-20 -165 -1 -64 13 -114 30 -149 51 -29 17 -70 34 -90 37 -33 5 -42 2 -77 -30
-67 -60 -150 -69 -207 -21 -35 30 -39 30 -69 7 -40 -31 -58 -33 -122 -10 -77
26 -274 37 -332 18 -20 -7 -63 -38 -97 -71 -33 -32 -68 -59 -79 -59 -10 0 -30
16 -45 35 -14 19 -32 35 -39 35 -16 0 -65 56 -65 75 0 7 -15 19 -32 26 -18 7
-47 29 -65 48 -26 27 -39 34 -68 33 -72 -3 -105 -36 -105 -106 0 -59 31 -209
50 -246 28 -53 71 -97 122 -124 29 -16 67 -42 83 -57 17 -16 58 -42 91 -58 51
-24 64 -37 85 -78 25 -47 26 -48 77 -51 41 -2 55 -8 72 -29 11 -14 20 -31 20
-38 0 -20 25 -25 132 -25 l101 0 82 -85 c66 -67 85 -94 95 -132 7 -26 28 -64
46 -84 18 -21 40 -53 49 -73 10 -20 31 -46 47 -58 17 -12 41 -44 53 -72 13
-29 30 -58 38 -65 9 -7 23 -35 32 -62 9 -28 27 -69 40 -92 32 -59 42 -238 17
-288 -18 -35 -81 -77 -165 -110 -43 -17 -133 -71 -147 -89 -3 -3 -26 -18 -53
-34 -27 -15 -59 -45 -73 -67 -16 -26 -39 -46 -62 -55 -20 -8 -44 -19 -52 -24
-8 -6 -28 -19 -45 -30 -36 -24 -66 -25 -111 -4 -44 21 -57 15 -82 -40 -23 -47
-54 -65 -89 -51 -10 4 -33 11 -50 15 -33 8 -48 -1 -91 -54 -19 -23 -60 -19
-120 13 l-53 29 -60 -16 c-59 -16 -61 -16 -103 6 -24 13 -48 34 -55 48 -14 31
-59 58 -141 86 -84 28 -139 26 -205 -8 l-53 -26 -23 21 c-13 11 -26 21 -30 21
-11 0 -29 60 -29 97 0 27 -6 37 -30 51 -36 21 -38 41 -6 69 52 45 61 46 80 2
10 -22 15 -46 12 -54 -3 -8 -1 -15 5 -15 5 0 14 -11 19 -25 5 -14 14 -25 19
-25 21 0 41 13 41 26 0 18 36 18 43 1 3 -8 26 -20 52 -27 40 -11 48 -11 62 2
39 40 -33 96 -98 78 -48 -14 -57 -13 -64 9 -9 29 9 64 59 111 25 24 46 51 46
60 0 33 -95 68 -125 47 -12 -9 -32 -11 -61 -7 -50 8 -54 6 -54 -29 -1 -55 -18
-62 -121 -56 -135 8 -174 14 -194 28 -16 12 -15 15 9 44 34 40 33 64 -4 85
-17 9 -30 23 -30 30 0 13 63 71 108 99 12 7 22 17 22 20 0 11 -165 69 -197 69
-17 0 -45 6 -61 13 -29 12 -30 13 -12 25 11 7 37 12 59 12 44 0 79 24 110 74
26 42 30 170 7 233 l-15 43 32 17 c26 14 53 18 137 16 104 -2 105 -2 130 -33
28 -33 78 -41 100 -16 16 21 -12 79 -48 97 -15 8 -38 25 -51 38 -25 24 -27 24
-146 6 -22 -4 -53 -2 -68 4 -26 10 -28 14 -22 54 5 34 3 47 -14 69 -17 22 -21
40 -21 110 0 73 4 90 30 138 35 66 37 93 10 161 -13 31 -19 63 -15 78 9 44 65
66 65 25 0 -8 5 -14 10 -14 6 0 10 -18 10 -40 0 -44 9 -50 28 -20 14 23 99 80
119 80 17 0 16 -24 -2 -60 -16 -31 -7 -76 18 -92 25 -16 66 -8 78 14 20 37 11
187 -10 173 -20 -12 -42 34 -42 86 0 30 -1 82 -2 117 -1 68 12 92 52 95 34 2
42 27 26 82 -20 64 -19 114 2 138 16 17 41 105 42 150 1 9 -7 25 -16 35 -10 9
-26 30 -36 45 -17 27 -17 27 7 27 17 0 28 9 40 34 20 43 20 44 -4 94 -11 22
-20 49 -20 59 0 19 52 57 63 46 10 -9 15 15 26 117 22 211 32 259 66 327 85
174 159 133 81 -45 -18 -43 -41 -101 -51 -130 -16 -51 -16 -56 0 -92 9 -21 18
-57 19 -80 3 -52 -20 -78 -76 -87 l-39 -6 7 -72 c4 -45 2 -99 -6 -139 -15 -82
-9 -107 35 -148 50 -45 48 -80 -10 -142 -46 -51 -51 -61 -36 -85 6 -9 23 -12
62 -8 30 3 72 7 94 9 37 3 42 7 67 56 21 42 25 58 18 83 -12 39 19 74 56 65
19 -5 24 -3 24 13 0 11 10 26 22 32 19 10 25 8 52 -24 25 -29 42 -38 86 -46
30 -5 59 -6 64 -1 8 8 -50 90 -64 90 -4 0 -19 11 -34 25 -19 17 -26 34 -26 60
0 22 -8 44 -21 58 -14 16 -19 30 -15 50 3 15 9 40 12 57 8 40 -2 75 -28 99
-22 21 -38 19 -38 -5 0 -7 -19 -55 -41 -105 -35 -78 -41 -99 -37 -140 6 -59
-7 -74 -54 -64 -57 12 -76 30 -84 81 -5 33 -3 54 6 68 8 12 17 45 21 75 7 48
14 60 66 113 59 59 90 71 113 43 15 -18 34 -20 24 -2 -5 7 0 6 10 -3 17 -14
18 -12 14 25 -3 22 -16 65 -28 95 -34 80 -32 125 8 160 24 21 32 36 32 61 0
41 20 107 40 139 15 21 17 22 33 6 9 -10 17 -26 17 -36 0 -21 45 -60 69 -60
37 0 61 29 61 74 0 30 7 52 23 72 14 19 22 42 22 69 0 38 2 40 40 50 50 13 65
22 65 42 0 33 32 80 66 97 20 9 46 29 60 45 14 17 42 33 71 41 89 24 109 37
123 83 7 23 16 53 20 67 5 14 16 51 25 82 l17 57 -26 31 c-29 35 -33 58 -12
66 20 8 35 55 26 80 -12 30 -84 74 -123 74 -22 0 -41 8 -56 24 -15 16 -38 26
-71 30 -26 4 -53 13 -60 21 -14 17 -50 20 -50 4 0 -6 -13 -22 -30 -35 -17 -15
-34 -43 -41 -67 -6 -23 -18 -47 -27 -54 -23 -17 -93 -16 -119 2 -45 32 -48
193 -3 240 24 26 19 48 -15 63 -27 12 -42 42 -85 172 -16 48 -37 103 -46 125
-11 27 -14 53 -9 89 3 28 8 104 11 168 5 96 2 128 -12 170 -9 29 -18 83 -20
120 -2 66 -2 67 27 77 24 8 29 15 29 43 0 18 -10 49 -22 68 -19 31 -21 47 -19
145 2 97 5 114 26 147 28 42 44 103 45 164 0 75 17 103 67 117 58 15 68 34 50
97 -14 46 -13 50 2 50 9 0 32 5 52 10 62 17 78 93 34 158 -14 20 -25 46 -25
57 0 11 -5 37 -11 58 -8 30 -15 37 -35 37 -14 0 -35 -6 -47 -14 -12 -8 -39
-17 -61 -21 -21 -3 -61 -22 -88 -41 -28 -19 -54 -34 -59 -34 -16 0 -31 -42
-24 -67 5 -22 10 -25 40 -20 22 4 45 -1 67 -12 18 -10 45 -21 61 -25 36 -9 35
-39 -3 -74 -20 -18 -34 -45 -43 -82 -16 -61 -32 -74 -46 -37 -9 23 -13 24 -38
16 -52 -17 -58 -20 -76 -42 -50 -62 -67 -99 -67 -145 0 -39 -7 -56 -38 -96
-20 -27 -42 -51 -49 -53 -6 -3 -20 11 -29 29 -14 25 -19 65 -22 163 -5 143 -8
152 -72 185 -44 22 -66 26 -108 16 -42 -10 -82 14 -82 49 0 39 18 75 45 87 13
6 27 19 30 28 7 22 -11 71 -32 87 -20 16 -45 120 -37 158 9 43 32 85 47 85 22
0 90 -102 104 -154 13 -50 9 -89 -11 -116 -25 -34 -37 -63 -29 -70 8 -8 84
-30 118 -34 29 -4 63 13 68 35 8 29 -21 141 -42 164 -11 11 -27 38 -38 60 -10
22 -30 46 -46 53 -15 8 -35 29 -44 48 -9 19 -20 34 -24 34 -4 0 -11 20 -14 44
-5 33 -13 46 -31 54 -18 9 -27 8 -36 -2 -22 -22 -59 -38 -74 -32 -20 8 -6 34
26 51 24 12 27 20 29 72 1 32 6 62 11 67 12 12 84 -10 122 -37 20 -13 30 -30
34 -59 4 -22 13 -42 20 -45 8 -3 14 -10 14 -15 0 -6 14 -26 30 -45 17 -18 30
-41 30 -50 0 -25 30 -53 56 -53 12 0 34 -4 47 -9 43 -17 93 30 137 127 24 52
39 59 93 38 53 -20 71 -20 87 -1 17 20 4 52 -25 59 -13 3 -34 21 -46 39 -12
17 -41 50 -64 72 -35 33 -45 51 -54 97 -12 58 -49 107 -59 79 -7 -21 -81 -93
-91 -89 -24 9 -120 128 -131 163 -16 52 -35 72 -92 101 -37 19 -48 30 -48 49
0 35 -15 69 -45 99 -18 18 -25 35 -23 54 3 27 4 27 76 27 68 0 74 2 105 32 53
51 70 54 151 22 39 -16 89 -28 112 -29 32 0 49 -8 83 -36 36 -31 46 -35 74
-29 92 20 140 -6 173 -92 16 -41 16 -46 -2 -85 -11 -25 -19 -64 -18 -95 0 -44
5 -58 28 -82 26 -28 28 -33 22 -84 -6 -49 -5 -57 15 -76 13 -12 26 -21 30 -21
5 0 34 -26 66 -57 32 -32 67 -63 78 -69 11 -6 24 -23 29 -37 8 -22 5 -30 -19
-52 -16 -16 -35 -25 -46 -22 -29 8 -39 -14 -31 -64 l7 -44 51 -5 c55 -6 84
-23 84 -49 0 -30 29 -60 62 -63 23 -2 36 -11 45 -28 7 -13 8 -27 4 -30 -13 -8
-31 -71 -31 -106 0 -20 7 -38 18 -46 27 -20 52 -60 52 -84 0 -12 -16 -41 -35
-64 -19 -23 -35 -50 -35 -60 0 -18 16 -84 39 -157 9 -32 7 -61 -9 -98 -16 -35
-30 -99 -30 -132 0 -24 -7 -37 -29 -52 -16 -12 -38 -38 -48 -59 -11 -23 -33
-45 -60 -60 -24 -13 -43 -29 -43 -37 0 -18 -46 -28 -70 -15 -28 15 -25 27 16
67 20 19 34 36 32 38 -10 10 -48 -9 -48 -25 0 -17 -38 -40 -65 -40 -14 0 -45
-48 -45 -71 0 -6 -18 -29 -40 -51 -22 -22 -40 -49 -40 -60 0 -24 22 -67 65
-127 18 -25 36 -64 40 -86 16 -88 31 -108 102 -142 49 -24 70 -30 79 -22 24
20 34 -2 34 -75 0 -52 -6 -84 -21 -115 -23 -49 -37 -49 -61 -1 -22 43 -54 57
-68 30 -14 -26 -12 -62 5 -84 18 -24 20 -96 2 -120 -7 -9 -23 -22 -36 -29 -37
-18 -47 -41 -33 -71 9 -21 19 -26 47 -26 30 0 37 -5 49 -32 38 -85 73 -92 134
-27 34 37 44 42 59 33 9 -6 21 -24 25 -41 12 -45 31 -56 84 -50 47 5 88 34 99
68 7 22 -21 55 -50 61 -25 4 -34 48 -11 48 9 0 16 5 16 10 0 15 29 12 46 -4 8
-8 14 -24 14 -35 0 -17 6 -21 33 -21 41 0 70 20 58 38 -4 8 -28 15 -52 16
l-44 2 -5 55 c-6 57 -26 99 -47 99 -13 0 -53 35 -53 46 0 10 28 34 39 34 6 0
11 6 11 14 0 7 9 16 20 19 15 4 20 14 20 40 0 28 -8 42 -47 78 -46 42 -76 100
-66 126 8 19 57 43 89 43 33 0 64 26 64 53 0 11 -15 37 -34 58 -26 28 -33 43
-29 61 9 34 33 58 79 78 64 28 94 66 94 120 0 29 8 56 20 75 11 17 29 49 40
73 30 67 74 52 98 -35 13 -42 9 -57 -24 -113 -19 -34 -14 -71 13 -81 16 -6 33
0 67 22 26 16 54 29 63 29 17 0 114 -95 134 -131 6 -12 11 -53 10 -90 -2 -79
21 -142 56 -158 13 -6 23 -15 23 -21 0 -12 -41 -30 -52 -24 -4 3 -12 -4 -18
-15 -7 -14 -6 -48 6 -121 15 -95 15 -106 -2 -176 -16 -70 -16 -80 -1 -152 9
-44 14 -97 10 -122 -4 -36 0 -53 17 -83 12 -20 27 -37 32 -37 12 0 8 -34 -21
-159 -16 -74 -17 -88 -5 -129 8 -25 14 -57 14 -72 0 -15 8 -38 19 -51 12 -16
20 -46 23 -87 2 -35 9 -67 15 -70 6 -4 13 -17 17 -29 5 -17 15 -23 36 -23 23
0 30 6 39 31 17 49 13 72 -16 108 -26 31 -27 37 -25 133 2 106 -14 180 -59
278 -21 44 -21 46 -3 90 9 25 18 63 18 85 1 23 9 53 19 67 21 33 22 68 2 94
-22 29 -18 55 13 87 26 27 27 33 30 150 3 112 6 125 28 155 29 37 43 99 51
227 6 94 13 112 50 126 39 15 55 53 62 152 1 5 6 5 11 2 6 -3 10 1 10 9 0 9 7
16 15 16 9 0 15 9 15 25 0 14 -4 25 -10 25 -5 0 -10 8 -10 18 1 15 2 16 13 1
7 -10 36 -19 72 -24 69 -8 95 -19 95 -41 0 -19 39 -53 61 -54 9 0 19 -9 22
-20 3 -11 2 -18 -3 -15 -9 6 -20 -18 -20 -45 0 -37 92 -110 137 -110 40 0 59
-25 68 -87 6 -45 11 -54 36 -65 45 -20 36 -74 -23 -132 -30 -29 -32 -61 -8
-109 12 -24 30 -49 41 -55 21 -13 22 -12 33 38 6 31 143 170 208 212 59 38
148 177 155 241 6 53 -10 71 -122 127 -48 23 -108 26 -129 5 -16 -17 -76 -21
-76 -5 0 6 9 19 21 31 14 14 19 30 17 52 l-3 32 -66 -3 c-61 -2 -68 0 -83 22
-9 14 -13 31 -10 39 3 8 -10 48 -29 88 -19 41 -38 85 -42 99 -10 32 -42 60
-70 60 -29 0 -85 20 -85 30 0 5 9 29 19 54 24 56 84 92 125 76 15 -5 26 -16
26 -25 0 -15 12 -20 23 -9 7 7 -13 54 -23 54 -3 0 -7 21 -9 46 -3 55 -16 93
-35 100 -8 3 -21 16 -30 28 -14 22 -11 27 54 110 72 92 121 196 104 223 -5 8
-28 16 -51 18 -60 5 -66 11 -59 58 7 44 30 77 54 77 8 0 30 -17 48 -37 l34
-37 20 20 c20 19 20 22 5 65 -9 24 -14 51 -12 60 4 13 -5 18 -34 23 -39 6 -89
-1 -99 -14 -3 -3 -21 -18 -41 -33 -31 -24 -38 -25 -43 -11 -7 19 3 64 15 64 5
0 18 19 30 43 12 23 36 58 54 77 37 40 49 71 40 101 -6 17 -12 20 -38 15 -18
-4 -40 -7 -51 -7 -23 0 -56 29 -56 50 0 9 -13 27 -30 41 -29 25 -29 26 -23
103 5 60 10 80 22 84 52 16 69 27 78 46 13 28 29 66 39 92 6 18 8 18 11 3 3
-12 14 -18 34 -18 27 0 29 3 30 43 3 66 -2 112 -12 115 -5 2 -9 13 -9 24 0 11
-9 33 -21 49 -28 40 -19 93 19 114 33 17 44 18 75 4z m-5287 -24 c10 -24 -44
-95 -72 -95 -30 0 -30 11 -3 36 12 10 27 31 35 46 16 31 32 36 40 13z m3604
-97 c0 -17 -21 -17 -39 1 -13 13 -16 21 -8 24 13 4 47 -14 47 -25z m5070 0 c0
-12 -17 -18 -34 -12 -9 3 -14 10 -11 14 6 10 45 9 45 -2z m273 -80 c2 -7 1
-23 -4 -35 -6 -15 -14 -20 -28 -16 -25 6 -27 20 -4 45 19 21 29 23 36 6z
m-8849 -14 c8 -3 12 -12 10 -19 -3 -7 0 -16 6 -20 17 -10 -19 -34 -52 -35 -19
0 -34 -10 -49 -32 -13 -18 -50 -59 -82 -91 -44 -44 -63 -56 -78 -52 -32 10
-24 58 23 129 42 64 58 76 110 76 15 0 39 11 54 25 29 27 34 28 58 19z m3496
-42 c0 -3 -9 -24 -20 -47 -38 -79 -104 -77 -84 2 7 29 16 39 44 48 33 11 60
10 60 -3z m-1154 -70 c11 -7 18 -32 15 -59 -2 -21 -59 -16 -70 5 -18 34 24 75
55 54z m1243 -133 c6 -18 11 -40 11 -50 0 -20 10 -28 113 -93 37 -23 77 -57
87 -74 12 -19 30 -34 47 -37 64 -13 79 -22 95 -55 25 -50 39 -105 32 -123 -4
-12 -11 -9 -34 14 l-28 30 -28 -24 c-23 -20 -28 -33 -29 -75 -1 -29 -5 -55 -8
-59 -4 -3 -7 -14 -7 -23 0 -9 -12 -22 -27 -29 -27 -13 -30 -11 -86 50 -32 35
-65 76 -74 90 -8 14 -34 32 -56 41 -50 18 -88 76 -108 162 -18 84 1 115 68
107 6 -1 14 3 17 8 3 5 -19 20 -49 35 -43 20 -55 31 -55 49 0 29 17 50 55 71
43 22 52 20 64 -15z m-3964 -12 c17 -13 17 -15 -6 -30 -24 -18 -59 -23 -59 -9
0 11 30 52 39 52 4 0 15 -6 26 -13z m-85 -91 c0 -13 -6 -29 -14 -35 -11 -10
-16 -8 -21 9 -7 21 9 50 26 50 5 0 9 -11 9 -24z m2885 13 c10 -16 -3 -56 -21
-63 -22 -8 -54 11 -54 34 0 31 60 55 75 29z m-2703 -126 c25 -22 23 -38 -8
-62 -34 -26 -71 -27 -79 -2 -7 24 13 69 34 74 29 8 34 7 53 -10z m5048 -1 c0
-10 -13 -26 -30 -35 l-30 -18 0 25 c0 24 22 45 48 46 6 0 12 -8 12 -18z
m-5238 -54 c-6 -23 -50 -24 -59 -1 -4 10 2 23 17 35 21 17 23 17 35 1 7 -9 10
-25 7 -35z m9642 -9 c11 -57 7 -96 -11 -103 -9 -4 -41 -4 -69 0 -44 5 -53 10
-58 30 -8 32 3 76 22 92 9 6 37 12 63 12 44 0 47 -2 53 -31z m-9750 -45 c13
-33 6 -63 -15 -69 -11 -4 -23 -4 -26 -1 -10 10 -6 56 7 71 16 19 26 19 34 -1z
m201 -25 c8 -35 -3 -51 -37 -56 -13 -2 -35 -17 -50 -34 -17 -20 -32 -29 -42
-26 -25 10 -19 24 31 82 40 47 55 59 85 64 3 0 9 -13 13 -30z m85 -139 c0 -11
-6 -37 -14 -57 -8 -21 -17 -55 -20 -77 -5 -38 -30 -86 -44 -86 -4 0 -13 25
-20 55 -13 55 -13 55 23 120 25 45 43 65 56 65 12 0 19 -7 19 -20z m4403 -20
c-3 -11 -9 -20 -14 -20 -10 0 -12 33 -3 43 12 12 22 -3 17 -23z m-3249 4 c11
-4 16 -19 16 -45 0 -44 -18 -51 -58 -23 -47 33 -13 89 42 68z m3911 -24 c33
-13 32 -53 -2 -58 -25 -4 -46 27 -37 52 7 19 6 19 39 6z m-3497 -55 c12 -11
-22 -25 -64 -25 -44 0 -91 24 -64 34 41 14 110 9 128 -9z m2705 -54 c26 -26
-32 -69 -77 -57 -22 5 -26 12 -26 40 0 25 5 36 18 38 21 5 72 -8 85 -21z
m-4339 -129 c-15 -23 -64 -29 -64 -8 0 9 9 25 21 37 20 20 22 20 37 5 13 -13
14 -20 6 -34z m2550 -432 c6 0 27 -14 46 -31 19 -18 50 -38 68 -45 24 -11 32
-21 32 -39 0 -21 -11 -30 -65 -56 l-65 -32 0 -46 c-1 -25 -1 -62 0 -82 0 -42
-9 -47 -105 -55 -33 -2 -72 -9 -87 -15 -31 -13 -70 -6 -91 16 -11 11 -14 31
-10 82 3 37 9 75 14 84 5 10 31 22 59 29 38 9 51 17 56 34 6 26 -8 67 -30 85
-14 12 -9 18 46 47 44 23 72 32 92 29 16 -3 34 -5 40 -5z m1784 -187 c26 -37
12 -69 -33 -77 -45 -9 -66 -36 -79 -103 l-12 -58 -47 -3 c-44 -3 -47 -2 -47
22 0 13 13 52 29 86 17 35 35 84 42 111 l13 49 57 0 c51 0 60 -3 77 -27z
m-312 -241 c6 -4 14 -22 17 -40 8 -38 -19 -72 -56 -72 -20 0 -22 4 -18 48 4
63 25 86 57 64z m-1789 -36 c0 0 3 -12 5 -26 4 -30 -26 -39 -56 -17 -16 11
-17 17 -7 36 9 16 18 20 34 15 12 -3 23 -7 24 -8z m3066 -51 c-7 -21 -13 -19
-13 6 0 11 4 18 10 14 5 -3 7 -12 3 -20z m-2806 -92 c4 -12 -38 -39 -72 -45
-11 -1 -26 -9 -33 -15 -14 -13 -42 -18 -42 -7 0 9 63 70 80 77 23 9 63 3 67
-10z m2937 1 c30 -29 14 -45 -56 -58 -43 -8 -46 -1 -23 44 18 34 53 40 79 14z
m-3020 -518 c17 -13 42 -34 56 -46 14 -12 39 -29 55 -37 17 -9 55 -33 85 -54
77 -53 196 -99 258 -99 47 0 147 -26 192 -50 11 -6 36 -44 56 -83 42 -88 55
-99 94 -84 44 17 57 -3 75 -113 18 -112 18 -189 1 -245 -11 -36 -10 -44 11
-80 13 -22 23 -43 23 -47 0 -15 -30 -8 -50 12 -11 11 -20 16 -20 10 0 -5 -4
-10 -10 -10 -13 0 -36 47 -44 91 -8 43 -59 97 -78 82 -55 -43 -119 2 -122 87
-1 8 -9 16 -19 18 -22 4 -22 -21 0 -58 16 -27 16 -33 0 -89 -22 -80 -22 -93 9
-153 l26 -51 -23 -19 c-13 -10 -32 -20 -41 -24 -10 -3 -21 -16 -24 -30 -9 -35
-36 -47 -62 -28 -28 19 -28 33 2 73 14 19 22 40 19 52 -6 20 -36 42 -46 33 -3
-3 -15 -1 -26 6 -23 12 -27 40 -11 71 9 16 7 19 -10 19 -16 0 -20 5 -16 18 4
11 -1 35 -9 56 -20 47 -54 61 -113 46 -33 -8 -48 -8 -58 1 -19 16 -18 24 13
70 30 46 68 69 113 69 32 0 50 -26 50 -71 0 -11 6 -27 14 -35 32 -31 63 -10
105 71 28 54 29 60 15 76 -9 10 -38 23 -65 28 -68 15 -112 35 -156 70 -21 16
-68 41 -104 54 -75 27 -170 95 -226 163 -21 26 -57 67 -80 92 -55 58 -58 99
-12 144 27 28 34 30 76 24 25 -3 60 -17 77 -30z m1494 -385 c-2 -18 -10 -27
-25 -29 -19 -3 -23 1 -23 25 0 16 5 34 12 41 17 17 40 -5 36 -37z m-3728 -341
c0 -5 -4 -10 -10 -10 -5 0 -10 5 -10 10 0 6 5 10 10 10 6 0 10 -4 10 -10z
m9357 -22 c36 -34 29 -44 -32 -47 -37 -1 -62 3 -80 15 -24 16 -25 18 -9 35 24
27 91 25 121 -3z m-6210 -285 c-7 -38 11 -70 44 -77 l28 -5 -49 -101 c-28 -55
-50 -111 -50 -123 -1 -52 -34 -58 -65 -11 -12 19 -23 24 -55 22 -22 -1 -43 1
-46 5 -16 16 9 98 40 136 30 35 33 45 29 83 -6 50 2 60 63 81 60 22 67 21 61
-10z m4442 -27 c20 -21 22 -31 17 -70 -13 -83 -63 -112 -86 -50 -8 20 -5 39
12 85 13 32 26 59 29 59 3 0 16 -11 28 -24z m1771 -26 c0 -5 -4 -10 -10 -10
-5 0 -10 5 -10 10 0 6 5 10 10 10 6 0 10 -4 10 -10z m-9305 -183 c-4 -29 -7
-94 -5 -144 1 -56 -2 -93 -8 -93 -17 0 -82 71 -88 97 -4 14 1 40 10 62 15 33
17 85 4 150 -1 3 2 19 7 34 l8 28 39 -41 c40 -41 40 -43 33 -93z m7538 -45
c12 -10 24 -24 26 -32 8 -27 2 -113 -8 -123 -11 -11 -71 9 -71 24 0 21 -31 6
-45 -21 -9 -16 -20 -30 -25 -30 -5 0 -10 -9 -12 -20 l-3 -20 -37 20 c-21 11
-45 20 -54 20 -8 0 -13 4 -9 9 3 5 0 13 -6 17 -13 7 -5 74 12 107 10 18 18 19
74 14 59 -6 64 -5 90 24 33 34 40 35 68 11z m1545 -49 c11 -10 23 -28 27 -40
8 -28 -15 -41 -94 -51 -61 -9 -110 6 -139 41 -10 12 -7 16 15 25 16 5 46 17
68 26 53 20 98 20 123 -1z m-6218 -75 c0 -16 -20 -48 -30 -48 -11 0 -14 53 -4
63 8 8 34 -3 34 -15z m6450 1 c0 -11 -3 -11 -24 -3 -23 9 -20 23 4 17 11 -3
20 -9 20 -14z m-8807 -17 c13 -11 17 -30 17 -76 0 -34 -5 -68 -10 -76 -17 -27
-34 6 -36 68 0 31 -5 70 -9 86 -8 31 0 30 38 -2z m8844 12 c-3 -3 -12 -4 -19
-1 -8 3 -5 6 6 6 11 1 17 -2 13 -5z m-8601 -75 c3 -6 6 -33 6 -60 -1 -38 4
-54 19 -67 49 -40 61 -96 39 -179 -13 -50 -13 -54 7 -75 25 -26 43 -69 43
-101 0 -12 7 -35 15 -51 8 -15 15 -45 15 -66 0 -24 5 -40 15 -44 9 -3 15 0 15
8 0 7 12 18 28 25 80 37 77 34 77 85 0 42 4 51 35 77 19 16 45 29 58 29 31 0
72 -43 72 -75 0 -32 -43 -77 -65 -69 -23 9 -60 -20 -74 -58 -26 -70 -41 -98
-52 -98 -6 0 -17 -7 -26 -15 -36 -37 -18 -210 24 -231 l23 -11 -23 -10 c-32
-14 -147 -8 -158 8 -5 8 -6 50 -2 94 5 71 3 86 -17 125 -12 24 -39 91 -60 149
-21 58 -47 126 -59 151 -11 25 -21 55 -21 68 0 12 -13 36 -30 54 -39 40 -42
97 -7 132 21 21 24 32 23 112 -1 49 3 102 7 117 l8 28 29 -21 c16 -12 32 -25
36 -31z m-646 -12 l0 -42 -19 24 c-15 20 -17 30 -8 48 14 32 27 19 27 -30z
m7805 -67 c-3 -5 -10 -10 -16 -10 -5 0 -9 5 -9 10 0 6 7 10 16 10 8 0 12 -4 9
-10z m-5187 -93 c-7 -79 -26 -122 -54 -121 -22 0 -23 -5 -10 -67 6 -30 2 -47
-23 -97 -17 -34 -31 -67 -31 -74 -1 -7 -13 -28 -29 -46 -26 -30 -27 -36 -18
-76 9 -40 8 -45 -26 -90 -20 -26 -45 -66 -56 -90 -10 -24 -23 -46 -29 -49 -15
-10 -40 24 -53 75 -12 42 -11 49 6 68 10 11 24 20 31 20 27 0 45 49 54 139 5
49 15 102 24 118 8 15 31 61 51 101 20 39 39 72 44 72 5 0 14 27 19 60 14 75
43 120 79 120 25 0 26 -1 21 -63z m-2608 23 c12 -22 -4 -65 -21 -55 -16 10
-10 75 7 75 2 0 8 -9 14 -20z m7654 -26 c9 -3 16 -17 16 -30 0 -31 -30 -32
-49 -3 -11 18 -11 23 1 30 16 11 13 10 32 3z m765 -333 c15 -10 7 -31 -12 -31
-21 0 -40 17 -33 29 9 13 26 14 45 2z m-7329 -106 c10 -12 10 -15 -4 -15 -9 0
-16 7 -16 15 0 8 2 15 4 15 2 0 9 -7 16 -15z m-1522 -155 c5 -85 -7 -147 -41
-212 -15 -31 -18 -49 -12 -97 8 -69 -7 -89 -37 -51 -16 19 -17 34 -12 104 4
44 14 95 22 111 10 20 16 60 16 116 1 71 5 91 20 108 29 31 39 13 44 -79z
m1626 69 c34 -39 57 -85 49 -93 -26 -26 -87 19 -101 73 -15 61 10 71 52 20z
m987 -25 c15 -19 14 -146 -3 -177 -6 -12 -29 -41 -50 -65 -27 -30 -38 -49 -33
-60 28 -68 28 -70 -2 -107 -15 -19 -35 -35 -44 -35 -20 0 -40 42 -29 60 12 19
-5 47 -39 65 -33 16 -39 29 -51 104 -12 72 1 96 97 171 80 63 127 77 154 44z
m-1127 -134 c29 -27 68 -56 87 -65 43 -19 61 -33 83 -67 21 -32 14 -48 -20
-48 -35 0 -67 -36 -61 -68 13 -66 -44 -82 -106 -31 -29 24 -37 38 -37 63 0 18
6 41 14 52 19 25 5 41 -41 50 -33 6 -35 9 -29 37 3 16 6 44 6 63 0 31 21 64
41 64 6 0 34 -22 63 -50z m540 -46 c21 -8 48 -67 44 -94 -3 -20 -5 -20 -45 10
-43 32 -53 56 -31 78 14 14 12 14 32 6z m886 -29 c13 -16 6 -35 -15 -35 -18 0
-26 15 -19 34 8 20 18 20 34 1z m-137 -50 c2 -14 0 -25 -4 -25 -5 0 -9 -6 -9
-12 0 -7 -14 -26 -30 -42 -19 -19 -30 -39 -30 -58 0 -15 -4 -28 -9 -28 -5 0
-10 31 -10 69 0 56 4 75 22 98 12 15 26 31 31 35 14 10 33 -8 39 -37z m4715 0
c2 -15 1 -42 -2 -60 -5 -27 -15 -36 -64 -57 -64 -29 -86 -25 -95 19 -8 42 53
99 65 62 2 -7 19 7 37 30 37 47 54 48 59 6z m-5267 -71 c24 -22 45 -97 54
-189 8 -76 18 -103 47 -123 10 -7 18 -19 18 -27 0 -7 5 -15 11 -17 8 -3 12
-34 13 -83 1 -44 5 -83 11 -87 5 -4 0 -23 -13 -48 -12 -23 -22 -50 -22 -59 0
-46 -69 -57 -97 -15 -15 24 -15 29 -2 52 8 15 29 30 47 36 48 13 37 39 -19 42
-52 3 -102 69 -99 132 4 85 0 107 -25 134 -55 59 -75 99 -75 149 0 27 6 53 14
61 7 8 16 23 20 33 8 28 90 33 117 9z m6543 -380 c9 -3 16 -16 16 -29 0 -18
-7 -24 -32 -27 -38 -6 -80 4 -85 19 -2 6 13 18 34 26 44 19 46 19 67 11z
m-1304 -158 c0 -11 -19 -15 -25 -6 -3 5 1 10 9 10 9 0 16 -2 16 -4z m-4773
-116 c-14 -20 -16 -21 -25 -4 -7 13 -7 25 0 37 9 17 12 18 25 4 14 -14 14 -17
0 -37z m-269 -160 c8 -22 7 -32 -4 -41 -12 -10 -19 -8 -34 9 -23 24 -24 35 -9
63 13 25 32 12 47 -31z m5732 12 c0 -14 -23 -32 -42 -32 -23 0 -24 27 0 33 29
8 42 7 42 -1z m-7370 -56 c0 -29 -28 -42 -48 -22 -20 20 -8 46 23 46 20 0 25
-5 25 -24z m7153 -96 c-4 -14 -14 -20 -34 -20 -37 0 -37 15 -1 28 39 15 41 14
35 -8z m-585 -332 c-2 -17 -11 -24 -30 -26 -32 -4 -39 21 -10 37 29 17 44 13
40 -11z m-6148 -83 c0 -28 -5 -38 -22 -44 -26 -10 -53 1 -61 24 -8 20 30 55
60 55 20 0 23 -5 23 -35z m7675 -187 c6 -46 6 -48 -18 -48 -32 0 -54 27 -59
70 -3 29 0 35 22 41 34 8 48 -7 55 -63z m-406 -109 c51 -18 38 -68 -14 -55
-26 7 -50 40 -40 56 8 13 15 13 54 -1z m-6074 -19 c0 -21 -59 -39 -133 -39
-72 -1 -79 12 -21 42 44 22 154 20 154 -3z m4635 -430 c0 -5 -4 -10 -9 -10 -6
0 -13 5 -16 10 -3 6 1 10 9 10 9 0 16 -4 16 -10z m-4662 -42 c-5 -15 -33 -22
-54 -14 -24 9 -6 26 27 26 20 0 29 -4 27 -12z m-995 -47 c19 -2 5 -39 -17 -45
-27 -7 -76 8 -76 23 0 21 32 28 93 22z m7467 -95 c0 -16 -27 -29 -41 -20 -10
6 -12 38 -3 47 10 10 44 -12 44 -27z m-6486 8 c36 -14 10 -44 -37 -44 -38 0
-51 14 -32 34 17 17 42 20 69 10z m5206 -40 c0 -9 -7 -14 -17 -12 -25 5 -28
28 -4 28 12 0 21 -6 21 -16z m-5355 -5 c11 -17 -26 -49 -56 -49 -58 0 -105 38
-66 53 23 10 116 7 122 -4z m4939 -163 c94 -112 144 -156 176 -156 26 0 33 -6
46 -35 13 -32 17 -35 58 -35 54 0 76 -8 76 -27 0 -8 11 -31 25 -51 30 -44 18
-68 -17 -35 -13 12 -43 27 -68 34 -25 7 -58 21 -75 31 -16 10 -40 18 -52 18
-12 0 -33 14 -48 33 -32 38 -87 81 -132 102 -17 8 -38 27 -45 42 -8 16 -20 37
-26 48 -13 23 -62 127 -62 132 0 2 23 -8 51 -24 28 -15 70 -50 93 -77z m-6040
-280 c-6 -16 -24 -23 -24 -8 0 10 22 33 27 28 2 -2 1 -11 -3 -20z m6666 -14
c18 -15 24 -33 29 -89 4 -39 5 -76 3 -83 -6 -17 -52 29 -52 52 0 10 -6 21 -14
24 -7 3 -19 23 -26 44 -11 32 -11 42 0 55 16 20 33 19 60 -3z m-3060 -82 c0
-5 -4 -10 -10 -10 -5 0 -10 5 -10 10 0 6 5 10 10 10 6 0 10 -4 10 -10z m-2860
-151 c-13 -23 -50 -26 -50 -4 0 16 39 36 53 28 4 -2 2 -13 -3 -24z m7254 -84
c3 -8 1 -15 -4 -15 -6 0 -10 7 -10 15 0 8 2 15 4 15 2 0 6 -7 10 -15z m-835
-29 c26 -9 31 -14 19 -19 -19 -7 -88 12 -88 25 0 11 28 9 69 -6z m155 -52
c118 -31 185 -88 142 -123 -10 -8 -19 -6 -40 10 -15 11 -45 23 -67 25 -55 5
-130 68 -114 94 8 13 6 13 79 -6z m-130 -90 c10 -4 16 -18 16 -36 0 -27 -3
-29 -31 -26 -39 4 -59 29 -40 52 14 17 30 20 55 10z m-7059 -55 c8 -25 0 -35
-37 -44 -23 -6 -28 -4 -28 11 0 21 28 54 46 54 7 0 16 -9 19 -21z m7207 -16
c10 -9 18 -21 18 -28 0 -17 39 -50 87 -74 31 -15 44 -29 48 -49 12 -59 29 -99
60 -137 60 -75 68 -108 38 -169 -14 -31 -15 -41 -3 -78 7 -24 22 -50 33 -59
20 -17 19 -46 -3 -79 -9 -13 -11 -13 -21 0 -8 11 -12 12 -16 3 -7 -20 -47 -15
-77 8 -24 19 -26 26 -26 103 0 72 -3 86 -25 115 -13 19 -27 54 -31 80 -11 71
-77 172 -135 207 -34 20 -53 40 -64 66 -19 48 -14 60 38 86 52 26 56 26 79 5z
m-6301 -153 c25 -14 25 -57 -1 -65 -10 -3 -28 -1 -39 4 -11 6 -33 8 -49 5 -52
-11 -46 39 8 59 25 9 60 8 81 -3z m-258 -55 c65 -59 97 -119 97 -185 1 -46 22
-74 51 -67 11 3 32 2 45 -3 19 -8 24 -17 24 -44 0 -19 -3 -41 -6 -50 -9 -22
-41 -20 -49 3 -3 11 -19 22 -35 26 -19 4 -30 13 -30 24 0 27 -30 62 -67 78
-26 10 -33 18 -28 31 24 60 19 80 -29 127 -37 37 -46 53 -46 80 0 19 3 35 6
35 3 0 33 -25 67 -55z m7543 34 c11 -9 14 -22 10 -43 -13 -65 -74 -90 -94 -38
-20 53 -20 60 -6 81 17 23 62 23 90 0z m-7982 -195 c5 -19 13 -24 39 -24 48 0
73 -22 75 -65 1 -21 -5 -43 -13 -52 -21 -20 -19 -49 5 -73 22 -22 26 -72 10
-114 -13 -35 -23 -33 -43 10 -10 20 -27 38 -38 41 -18 5 -19 11 -14 87 8 93
-7 142 -50 170 -24 16 -34 54 -18 69 10 10 40 -21 47 -49z m153 26 c-1 -19
-10 -32 -25 -40 -21 -9 -23 -8 -17 12 4 13 9 31 11 41 9 30 33 20 31 -13z m88
-70 c3 -5 -3 -10 -15 -10 -12 0 -18 5 -15 10 3 6 10 10 15 10 5 0 12 -4 15
-10z m7325 -21 c0 -5 -4 -9 -10 -9 -5 0 -10 7 -10 16 0 8 5 12 10 9 6 -3 10
-10 10 -16z m-1770 -64 c40 -14 94 -25 119 -25 60 0 91 -9 91 -26 0 -24 -33
-31 -165 -38 -111 -6 -139 -4 -190 12 -33 10 -76 17 -96 14 -22 -2 -40 1 -44
8 -10 17 -5 19 76 36 41 8 81 22 89 30 20 19 35 18 120 -11z m-5615 -45 c8
-13 -13 -40 -30 -40 -15 0 -15 32 0 42 14 11 23 10 30 -2z m5013 -19 c3 -8 -1
-12 -9 -9 -7 2 -15 10 -17 17 -3 8 1 12 9 9 7 -2 15 -10 17 -17z m1672 -96
c10 -13 8 -22 -15 -55 -31 -44 -52 -54 -96 -45 -31 7 -65 47 -54 65 3 5 26 10
49 10 29 0 52 7 67 20 29 24 33 24 49 5z m-5554 -46 c9 -16 -21 -43 -41 -36
-13 5 -14 11 -5 27 12 22 35 26 46 9z m6544 -19 c0 -5 -4 -10 -10 -10 -5 0
-10 5 -10 10 0 6 5 10 10 10 6 0 10 -4 10 -10z"/>
<path d="M5954 9365 c-10 -39 1 -58 26 -45 11 6 20 17 20 25 0 8 5 15 11 15 5
0 7 5 4 10 -4 6 -10 8 -15 5 -5 -3 -11 -1 -15 5 -11 17 -24 11 -31 -15z"/>
<path d="M3750 9177 c0 -17 5 -27 15 -27 19 0 19 9 0 34 -14 19 -15 19 -15 -7z"/>
<path d="M5852 9188 c-15 -15 -16 -45 -2 -53 6 -4 8 -11 5 -16 -10 -15 12 -10
29 7 17 16 20 33 10 58 -7 19 -25 21 -42 4z"/>
<path d="M6014 9066 c-19 -21 -41 -69 -49 -104 -5 -23 -15 -36 -32 -43 -24 -9
-25 -13 -21 -60 3 -28 11 -54 17 -58 6 -4 17 -35 24 -69 16 -78 26 -89 65 -71
28 12 30 16 30 70 0 74 24 127 60 131 35 4 39 30 17 119 -14 58 -22 72 -46 84
-34 18 -50 18 -65 1z"/>
<path d="M7015 8738 c-19 -12 -19 -12 5 -19 14 -4 33 -7 43 -8 15 -1 15 2 5
19 -15 23 -25 24 -53 8z"/>
<path d="M6430 8641 c-16 -30 -12 -51 9 -51 26 0 34 15 27 46 -8 29 -22 31
-36 5z"/>
<path d="M4020 8391 c0 -5 -3 -16 -6 -25 -4 -11 -1 -16 10 -16 18 0 22 35 6
45 -5 3 -10 2 -10 -4z"/>
<path d="M6323 8238 c-12 -13 -24 -37 -28 -55 -3 -17 -14 -40 -23 -51 -11 -12
-18 -36 -17 -61 0 -45 19 -57 21 -13 1 15 9 44 19 65 15 28 25 37 45 37 29 0
70 25 70 44 0 17 -38 56 -54 56 -7 0 -22 -10 -33 -22z"/>
<path d="M6843 7808 c-4 -7 -9 -42 -10 -78 -8 -192 -7 -185 -40 -238 -55 -83
-39 -120 45 -107 26 4 110 9 187 11 136 3 142 2 201 -26 33 -15 82 -32 110
-36 27 -4 62 -12 77 -19 35 -15 70 -9 93 16 16 17 16 20 -1 46 -23 35 -48 56
-105 90 -25 15 -59 38 -76 53 -33 28 -65 43 -132 60 -31 8 -48 20 -60 40 -9
16 -24 33 -34 37 -21 10 -92 69 -132 109 -17 17 -46 37 -65 43 -43 14 -48 14
-58 -1z"/>
<path d="M6493 7746 c-69 -38 -78 -73 -39 -146 23 -43 45 -151 48 -235 1 -29
-7 -52 -27 -83 -21 -32 -26 -48 -20 -69 9 -36 33 -63 57 -63 29 0 32 -26 8
-65 -33 -53 -44 -141 -45 -352 0 -182 -1 -193 -22 -221 -13 -17 -31 -62 -42
-101 -11 -39 -22 -75 -25 -79 -3 -5 -10 -41 -16 -80 -11 -69 -11 -72 14 -109
14 -21 26 -41 26 -46 0 -12 26 -37 39 -37 14 0 24 36 16 61 -4 13 3 42 18 77
14 32 28 75 32 97 11 73 15 83 31 89 24 9 44 -12 44 -45 0 -60 36 -107 63 -80
6 6 14 41 18 77 11 113 61 152 208 165 122 10 213 35 248 68 15 15 51 45 78
67 28 21 68 56 90 76 127 118 164 148 183 148 74 0 99 -165 37 -246 -14 -19
-37 -58 -50 -88 -32 -72 -118 -152 -202 -188 -35 -15 -76 -37 -90 -48 -15 -11
-49 -27 -77 -35 -61 -18 -116 -50 -116 -67 0 -8 9 -18 19 -23 60 -31 133 -79
138 -91 3 -8 -3 -36 -13 -63 -16 -46 -16 -51 0 -91 26 -65 32 -145 12 -175
-22 -33 -36 -32 -80 10 -43 40 -37 38 -70 25 -22 -8 -26 -15 -24 -48 1 -26 -6
-50 -20 -70 -31 -42 -56 -46 -92 -12 -41 38 -40 76 2 112 30 25 31 29 17 44
-14 13 -21 14 -40 4 -50 -25 -76 -66 -82 -129 -9 -79 -22 -104 -68 -130 -30
-17 -39 -28 -39 -49 1 -37 26 -67 80 -94 42 -21 49 -32 102 -138 31 -63 62
-137 68 -164 13 -60 46 -136 58 -136 16 0 44 -124 62 -275 7 -61 18 -97 47
-152 39 -74 60 -94 75 -71 12 19 9 77 -6 128 -11 37 -11 50 0 75 7 17 13 45
14 63 0 38 9 40 38 9 17 -18 22 -36 22 -75 0 -48 3 -54 33 -72 l32 -20 8 47
c5 27 17 54 29 65 16 14 24 36 30 84 10 84 20 99 57 80 14 -8 41 -31 58 -51
l33 -37 -20 -37 c-16 -32 -17 -44 -8 -75 14 -46 39 -68 79 -69 30 -2 33 2 51
48 11 28 31 74 44 103 21 45 23 59 14 91 -9 33 -54 81 -77 81 -5 0 -23 18 -41
39 -19 23 -48 45 -70 51 -20 7 -43 19 -49 28 -20 25 -15 70 12 110 14 20 25
45 25 55 0 10 7 28 15 41 9 13 17 32 20 42 18 85 18 80 -14 103 l-31 23 6 77
c4 50 3 85 -4 98 -10 18 -8 21 18 27 l30 6 0 75 c0 41 -4 75 -9 75 -13 0 -24
56 -22 112 1 38 -3 49 -19 58 -20 11 -28 50 -11 50 20 0 41 -13 41 -25 0 -7 6
-18 14 -24 27 -22 63 12 69 66 7 67 49 85 75 31 10 -21 10 -37 2 -67 -7 -27
-7 -48 0 -66 9 -23 15 -26 47 -23 l38 3 1 75 c1 54 9 96 28 150 15 41 25 79
22 86 -2 6 -26 14 -52 17 -30 3 -53 12 -61 23 -17 23 -5 35 44 43 38 6 38 7
43 60 5 46 11 58 35 75 51 36 95 87 95 110 0 13 -12 31 -30 44 -23 17 -30 30
-30 55 1 34 20 67 39 67 6 0 11 7 11 15 0 8 -4 15 -8 15 -5 0 -20 9 -33 21
-23 20 -24 21 -5 35 11 8 26 14 34 14 21 0 41 30 42 62 0 18 -14 44 -44 77
-28 31 -46 63 -50 87 -8 39 -78 144 -96 144 -6 0 -10 7 -10 15 0 17 -31 20
-47 4 -20 -20 -210 18 -266 53 -26 17 -66 34 -89 40 -24 5 -56 20 -73 32 -41
31 -110 39 -261 31 l-126 -8 -63 -63 c-61 -61 -165 -122 -186 -108 -5 3 -9 -3
-10 -13 0 -10 -3 -13 -5 -7 -7 17 63 132 118 192 26 30 48 61 48 71 0 9 -13
30 -30 46 -42 41 -61 88 -72 178 -14 128 -55 171 -125 133z m341 -949 c23 -17
18 -60 -7 -65 -33 -7 -67 8 -79 34 -10 20 -9 27 3 35 21 13 62 11 83 -4z m165
-6 c12 -8 12 -12 2 -25 -18 -22 -41 -20 -41 2 0 31 14 39 39 23z m299 -1038
c4 -38 5 -37 -37 -22 -50 17 -39 61 14 56 15 -2 21 -11 23 -34z m-141 -215
c13 -12 23 -27 23 -34 0 -14 -53 -57 -82 -67 -36 -13 -52 71 -21 105 22 24 52
23 80 -4z m161 -137 c7 -8 12 -42 12 -77 0 -47 -5 -67 -21 -88 -21 -27 -39
-34 -39 -15 0 6 -11 24 -25 41 -41 48 -42 73 -6 118 17 21 31 44 31 51 0 13
25 -3 48 -30z m-225 -57 c8 -8 -3 -34 -14 -34 -5 0 -9 9 -9 20 0 19 11 26 23
14z m-17 -165 c23 -26 23 -104 0 -127 -14 -14 -17 -14 -35 2 -21 19 -44 106
-35 131 9 22 48 19 70 -6z m190 -16 c-11 -11 -17 4 -9 23 7 18 8 18 11 1 2
-10 1 -21 -2 -24z"/>
<path d="M4910 7070 c0 -25 4 -30 25 -30 21 0 25 5 25 28 0 22 -5 28 -25 30
-22 1 -25 -2 -25 -28z"/>
<path d="M7874 6675 c6 -15 26 -116 26 -132 0 -2 7 -3 16 -3 8 0 29 -13 45
-30 l30 -29 10 26 c11 29 -10 73 -36 73 -7 0 -22 14 -32 30 -9 17 -21 30 -25
30 -4 0 -8 6 -8 14 0 7 -8 20 -17 27 -15 12 -16 12 -9 -6z"/>
<path d="M4477 6548 c-8 -29 2 -39 31 -32 21 6 33 44 13 44 -5 0 -16 3 -24 6
-9 3 -17 -3 -20 -18z"/>
<path d="M5930 6500 c0 -17 7 -46 14 -65 12 -29 20 -35 45 -35 52 0 53 73 1
110 -41 29 -60 26 -60 -10z"/>
<path d="M8016 6403 c-9 -22 13 -83 29 -83 14 0 28 41 20 62 -3 7 -14 19 -24
25 -16 10 -20 9 -25 -4z"/>
<path d="M6278 6112 c-13 -2 -18 -13 -18 -36 0 -93 -62 -176 -131 -176 -29 0
-39 -7 -71 -51 -41 -54 -49 -84 -20 -75 9 3 26 -1 37 -10 19 -14 22 -46 12
-128 -1 -12 11 -26 37 -41 23 -13 47 -37 59 -61 10 -21 41 -61 67 -89 79 -84
100 -122 100 -185 0 -45 7 -69 37 -125 20 -39 49 -86 65 -106 16 -20 31 -53
34 -75 9 -63 24 -91 61 -116 19 -13 43 -40 54 -60 29 -57 99 -64 119 -12 11
28 5 51 -23 81 -11 12 -23 45 -28 73 -6 38 -15 56 -38 76 -17 14 -36 44 -43
66 -8 26 -23 48 -46 63 -48 33 -61 55 -63 113 -2 42 -8 57 -31 79 -30 29 -38
80 -14 89 19 7 36 57 29 86 -3 13 -13 32 -22 43 -9 11 -27 42 -40 68 -14 27
-38 63 -53 79 -55 60 -50 113 18 161 51 36 62 63 44 117 -9 27 -23 44 -51 59
-22 12 -39 23 -39 24 0 1 -6 18 -13 37 -8 25 -17 34 -29 32z"/>
<path d="M6037 5539 c-19 -11 -23 -44 -7 -54 17 -10 39 14 35 37 -6 27 -7 28
-28 17z"/>
<path d="M6527 5346 c-3 -8 0 -20 8 -26 20 -17 50 -8 50 15 0 25 -49 34 -58
11z"/>
<path d="M6650 5240 c-14 -26 1 -70 24 -70 24 0 30 51 8 73 -20 19 -20 19 -32
-3z"/>
<path d="M4938 5193 c-24 -6 -23 -19 4 -37 32 -23 84 -21 90 2 9 32 -39 50
-94 35z"/>
<path d="M5093 5123 c-25 -3 -33 -10 -38 -32 -9 -41 -51 -76 -130 -107 -79
-31 -94 -46 -95 -89 0 -16 -7 -41 -15 -55 -8 -14 -14 -39 -15 -56 0 -25 -5
-33 -25 -38 -39 -10 -31 -30 8 -21 75 17 123 23 130 15 13 -12 -19 -67 -43
-73 -22 -6 -27 -36 -10 -68 14 -24 36 -24 78 1 43 27 61 25 72 -6 7 -18 6 -33
-5 -55 -18 -35 -48 -38 -97 -10 -60 34 -189 4 -246 -57 -20 -21 -28 -23 -60
-17 -92 19 -131 3 -138 -56 -6 -53 -15 -71 -46 -102 -61 -61 -76 -90 -76 -139
0 -68 -12 -114 -24 -97 -7 11 -8 9 -6 -6 5 -33 64 -33 98 0 30 28 45 27 96
-12 50 -37 78 -31 120 27 31 43 40 50 70 50 28 0 36 -5 44 -25 15 -39 57 -98
61 -86 5 14 66 -7 91 -31 10 -10 23 -18 29 -18 8 0 10 -18 7 -58 -6 -57 -5
-59 26 -80 38 -26 91 -28 190 -7 39 8 89 11 112 8 39 -5 104 12 104 28 0 4 18
9 39 13 22 3 52 12 68 20 15 8 52 25 80 38 l53 23 0 53 c0 50 15 82 38 82 5 0
17 9 27 20 15 17 16 22 4 37 -8 10 -17 20 -21 23 -3 3 -7 28 -9 55 -4 75 -24
115 -64 129 -28 9 -85 63 -85 80 0 8 -7 16 -15 20 -8 3 -15 12 -15 19 0 9 -13
14 -37 15 -57 2 -140 22 -151 35 -23 30 -21 48 8 73 27 25 38 43 71 120 11 28
19 33 60 38 69 9 77 25 35 74 -18 23 -37 58 -40 78 -6 31 -3 41 19 64 l27 28
-33 69 -34 68 -130 1 c-71 1 -144 -1 -162 -3z"/>
<path d="M7860 4905 c-6 -7 -21 -15 -33 -17 -33 -5 -28 -39 6 -51 35 -11 57 5
57 44 0 33 -13 44 -30 24z"/>
<path d="M5556 4902 c-8 -14 5 -50 20 -56 26 -10 45 5 42 33 -2 20 -9 27 -30
29 -14 2 -29 -1 -32 -6z"/>
<path d="M4181 4859 c-23 -24 -41 -50 -41 -59 0 -8 -7 -28 -15 -44 -8 -15 -15
-37 -15 -48 0 -11 -16 -35 -35 -52 -19 -18 -35 -35 -35 -39 0 -3 10 -16 22
-27 17 -15 22 -30 20 -58 -2 -30 0 -34 8 -19 6 9 18 17 25 17 8 0 15 6 15 13
0 24 42 92 83 135 23 23 37 42 32 42 -6 0 -3 6 6 13 9 7 21 34 27 60 23 108
-25 140 -97 66z"/>
<path d="M6025 4839 c-10 -16 4 -59 19 -59 25 0 39 26 26 49 -12 23 -35 28
-45 10z"/>
<path d="M7792 4703 c2 -10 11 -19 21 -21 16 -3 17 -1 7 17 -13 25 -33 28 -28
4z"/>
<path d="M3884 4700 c-51 -20 -66 -118 -27 -176 24 -38 50 -30 74 21 12 25 25
48 30 51 16 9 10 55 -12 85 -21 30 -31 33 -65 19z"/>
<path d="M6493 4698 c-22 -27 -45 -137 -47 -218 -1 -51 29 -54 44 -3 45 151
54 226 29 231 -9 1 -20 -3 -26 -10z"/>
<path d="M6811 4697 c-6 -6 -11 -27 -11 -47 0 -41 21 -66 60 -72 33 -4 39 30
15 83 -18 39 -46 54 -64 36z"/>
<path d="M7680 4540 c0 -13 7 -20 20 -20 13 0 20 7 20 20 0 13 -7 20 -20 20
-13 0 -20 -7 -20 -20z"/>
<path d="M6924 4543 c-16 -5 -5 -49 16 -68 23 -21 34 -5 25 34 -6 30 -21 41
-41 34z"/>
<path d="M6707 4491 c-26 -64 -22 -144 9 -201 14 -26 39 -57 55 -69 16 -12 29
-29 29 -39 0 -10 15 -42 34 -72 56 -89 63 -96 76 -84 8 8 6 27 -9 72 -12 34
-21 66 -21 73 0 6 -11 24 -24 39 -12 15 -31 52 -40 81 -10 30 -26 66 -37 80
-10 15 -24 51 -30 80 -17 81 -24 87 -42 40z"/>
<path d="M5650 4460 c-19 -36 18 -100 59 -100 31 0 60 33 54 62 -5 28 -29 45
-72 53 -24 4 -33 1 -41 -15z"/>
<path d="M7365 4426 c-15 -11 -17 -18 -9 -35 8 -19 12 -20 26 -9 20 15 28 49
13 55 -6 2 -19 -3 -30 -11z"/>
<path d="M6508 4399 c-38 -22 -12 -129 31 -129 41 0 52 44 27 105 -15 36 -29
42 -58 24z"/>
<path d="M7096 4365 c-18 -14 -18 -18 -5 -57 37 -114 100 -93 66 22 -14 48
-31 58 -61 35z"/>
<path d="M5787 4314 c-8 -50 7 -76 41 -72 40 4 41 40 2 78 -17 16 -32 30 -34
30 -2 0 -6 -16 -9 -36z"/>
<path d="M7030 4166 c0 -8 5 -18 10 -21 6 -4 22 -24 36 -46 14 -22 36 -44 50
-50 14 -5 28 -18 31 -29 3 -11 9 -20 13 -20 4 0 12 -12 18 -26 7 -14 17 -22
22 -19 18 11 10 44 -15 61 -14 9 -25 26 -25 39 0 29 -36 75 -60 75 -10 0 -25
11 -34 25 -18 27 -46 34 -46 11z"/>
<path d="M5942 4098 c7 -19 38 -22 38 -4 0 10 -9 16 -21 16 -12 0 -19 -5 -17
-12z"/>
<path d="M7019 3870 c0 -8 -2 -25 -3 -37 -5 -40 11 -46 18 -8 5 23 3 42 -3 48
-8 8 -11 7 -12 -3z"/>
<path d="M4853 3853 c-22 -8 -14 -21 12 -19 14 0 24 5 22 10 -4 12 -18 16 -34
9z"/>
<path d="M4750 3755 c0 -11 7 -15 23 -13 12 2 22 8 22 13 0 6 -10 11 -22 13
-16 2 -23 -2 -23 -13z"/>
<path d="M7021 3691 c-17 -30 -13 -51 13 -85 13 -17 26 -45 30 -63 14 -63 72
-83 90 -30 8 22 6 32 -12 55 -12 15 -37 50 -56 78 -42 63 -52 70 -65 45z"/>
<path d="M6931 3401 c-12 -22 -5 -51 13 -51 23 0 38 18 34 41 -4 30 -33 36
-47 10z"/>
<path d="M3355 3379 c-22 -41 -14 -56 34 -69 44 -12 91 -62 91 -98 0 -39 -13
-53 -66 -77 -74 -33 -86 -61 -53 -121 38 -71 49 -78 119 -71 44 5 71 2 99 -9
32 -13 50 -13 96 -5 61 11 72 9 94 -22 11 -15 21 -18 49 -14 73 12 100 82 42
112 -16 8 -38 15 -49 15 -11 0 -32 11 -47 25 -16 15 -48 29 -86 36 -56 11 -61
15 -79 53 -11 23 -26 52 -34 66 -9 15 -13 43 -11 72 5 54 -9 72 -65 82 -20 3
-45 17 -57 31 -30 34 -58 32 -77 -6z"/>
<path d="M2983 3220 c-28 -11 -30 -43 -7 -100 28 -70 77 -75 104 -10 21 51 60
32 60 -30 0 -46 26 -60 110 -60 49 0 61 3 70 20 8 15 8 18 -3 14 -10 -3 -22
10 -35 40 -12 25 -34 57 -49 71 -25 23 -34 26 -76 21 -39 -4 -54 -1 -84 19
-38 27 -55 29 -90 15z"/>
<path d="M6647 3096 c-27 -13 -68 -27 -92 -31 -39 -5 -48 -12 -81 -62 -35 -53
-36 -57 -19 -70 11 -7 24 -13 31 -13 25 0 70 22 97 48 l27 26 47 -17 c41 -15
49 -16 69 -2 40 26 72 108 53 132 -17 20 -79 15 -132 -11z"/>
<path d="M6876 3071 c-16 -25 15 -81 44 -81 18 0 50 30 50 47 0 30 -79 59 -94
34z"/>
<path d="M6317 2943 c-12 -12 -7 -22 8 -17 8 4 15 10 15 15 0 11 -14 12 -23 2z"/>
<path d="M3297 2715 c-48 -33 -48 -59 1 -84 108 -54 171 -25 127 59 -29 55
-71 63 -128 25z"/>
<path d="M3568 2626 c-10 -7 -18 -23 -18 -36 0 -13 8 -29 18 -36 23 -18 106
-18 122 1 18 22 2 55 -36 71 -41 17 -64 17 -86 0z"/>
<path d="M3832 2624 c-29 -20 -29 -67 -1 -95 18 -18 30 -20 70 -17 111 11 120
88 14 117 -52 14 -56 14 -83 -5z"/>
<path d="M4080 2625 c0 -8 8 -30 17 -50 13 -27 23 -35 43 -35 34 0 50 17 50
52 0 21 -6 31 -26 38 -39 15 -84 13 -84 -5z"/>
<path d="M6311 2584 c-30 -13 -36 -22 -31 -54 5 -37 61 -40 88 -5 38 48 4 84
-57 59z"/>
<path d="M6575 2586 c-17 -12 -18 -18 -7 -40 13 -29 43 -34 62 -11 10 12 10
21 2 40 -13 28 -29 31 -57 11z"/>
<path d="M6086 2564 c-10 -26 -7 -34 13 -34 17 0 31 18 31 41 0 16 -38 10 -44
-7z"/>
<path d="M2926 2441 c-17 -7 -17 -8 -1 -24 67 -67 175 -105 208 -73 20 21 30
20 52 -4 32 -35 95 -21 95 22 0 25 -37 41 -83 35 -53 -7 -154 11 -193 34 -33
20 -48 22 -78 10z"/>
<path d="M3590 2240 c-9 -17 -6 -23 22 -40 34 -20 58 -26 58 -12 0 4 -9 22
-20 40 -22 37 -44 41 -60 12z"/>
<path d="M3810 2205 c0 -21 30 -31 40 -14 11 17 3 29 -21 29 -10 0 -19 -7 -19
-15z"/>
<path d="M3104 2072 c-37 -31 -34 -52 6 -52 30 0 74 43 67 64 -7 21 -42 16
-73 -12z"/>
<path d="M4505 8700 c-4 -6 -2 -17 4 -23 15 -15 25 -2 13 19 -7 12 -11 13 -17
4z"/>
<path d="M2682 7579 c-13 -5 -22 -15 -19 -21 4 -14 62 -16 94 -4 17 7 17 8 -1
22 -22 16 -41 17 -74 3z"/>
<path d="M100 6231 c0 -6 5 -13 10 -16 6 -3 10 1 10 9 0 9 -4 16 -10 16 -5 0
-10 -4 -10 -9z"/>
<path d="M0 5231 c0 -46 2 -52 15 -41 19 16 19 49 0 74 -14 18 -15 16 -15 -33z"/>
<path d="M9952 4563 c-6 -3 -10 -9 -6 -14 7 -12 54 -12 54 0 0 11 -30 19 -48
14z"/>
<path d="M8883 4044 c2 -25 7 -29 34 -32 18 -2 42 2 54 8 19 11 20 14 7 27 -9
8 -34 17 -56 20 -40 5 -41 5 -39 -23z"/>
<path d="M9600 3968 c0 -7 12 -21 28 -30 15 -10 39 -27 54 -39 16 -13 33 -19
43 -15 16 6 16 9 3 29 -29 43 -128 86 -128 55z"/>
<path d="M9379 3813 c-3 -20 4 -59 12 -69 5 -7 49 -24 97 -39 48 -15 92 -31
99 -36 14 -12 21 6 15 38 -9 47 -217 145 -223 106z"/>
<path d="M310 3588 c0 -7 5 -20 10 -28 12 -19 35 2 27 24 -7 19 -37 21 -37 4z"/>
<path d="M9475 3520 c-4 -13 0 -31 9 -45 13 -20 25 -25 56 -25 61 0 61 20 0
65 -41 30 -57 31 -65 5z"/>
<path d="M9610 3402 c0 -31 27 -62 53 -62 23 0 13 48 -15 73 -28 24 -38 21
-38 -11z"/>
<path d="M563 2864 c-8 -22 15 -43 27 -24 5 8 10 21 10 28 0 17 -30 15 -37 -4z"/>
<path d="M0 2744 c0 -53 1 -55 23 -48 35 10 47 24 47 53 0 33 -17 51 -47 51
-21 0 -23 -4 -23 -56z"/>
<path d="M1155 2539 c-68 -27 -73 -35 -37 -53 47 -24 95 -20 132 10 26 22 29
29 18 39 -24 23 -62 24 -113 4z"/>
<path d="M983 2532 c-25 -8 -83 -52 -83 -64 0 -5 26 -8 57 -8 44 0 62 5 79 21
21 19 21 22 6 40 -17 20 -23 21 -59 11z"/>
<path d="M345 2479 c-4 -6 -5 -13 -2 -16 7 -7 27 6 27 18 0 12 -17 12 -25 -2z"/>
<path d="M847 2474 c6 -15 23 -19 23 -5 0 5 -7 11 -14 14 -10 4 -13 1 -9 -9z"/>
<path d="M690 2451 c0 -5 7 -11 15 -15 9 -3 15 0 15 9 0 8 -7 15 -15 15 -8 0
-15 -4 -15 -9z"/>
<path d="M9400 2436 c0 -18 39 -31 52 -18 15 15 0 32 -28 32 -14 0 -24 -6 -24
-14z"/>
<path d="M910 2338 c-101 -46 -95 -39 -100 -99 -4 -48 -10 -60 -38 -83 -22
-19 -32 -36 -32 -56 0 -74 60 -52 154 59 37 43 78 88 91 100 30 25 32 54 5 81
-24 24 -23 24 -80 -2z"/>
<path d="M584 2306 c-11 -29 1 -51 29 -54 27 -3 57 12 57 29 0 32 -75 53 -86
25z"/>
<path d="M417 2303 c-9 -3 -26 -22 -37 -44 -15 -29 -27 -39 -45 -39 -56 0
-115 -44 -115 -86 0 -27 15 -38 55 -41 17 -1 51 -5 78 -8 29 -5 47 -4 47 2 0
6 16 13 35 16 34 6 74 39 75 63 0 7 7 15 16 18 9 4 12 11 7 18 -7 13 -9 18
-11 50 -3 30 -67 61 -105 51z"/>
<path d="M1212 2050 c-43 -18 -36 -67 7 -53 38 12 81 39 81 50 0 15 -53 16
-88 3z"/>
<path d="M395 1910 c-10 -11 -13 -20 -8 -20 13 0 38 29 31 35 -3 3 -13 -4 -23
-15z"/>
<path d="M1068 1819 c-40 -23 -91 -149 -73 -179 7 -11 59 20 82 50 10 13 35
104 34 127 0 12 -24 14 -43 2z"/>
<path d="M457 1724 c-35 -19 -47 -43 -47 -98 0 -56 8 -76 29 -76 11 0 23 17
34 51 12 33 26 53 38 56 11 3 19 14 19 27 0 44 -32 61 -73 40z"/>
<path d="M234 1685 c-7 -29 -1 -41 15 -30 14 8 14 55 1 55 -5 0 -12 -11 -16
-25z"/>
<path d="M545 1661 c-7 -13 14 -78 30 -91 10 -8 15 -30 15 -62 0 -50 0 -50 28
-43 41 10 69 41 56 62 -6 10 -22 20 -35 23 -19 5 -25 15 -31 48 -4 23 -9 46
-12 51 -8 12 -45 21 -51 12z"/>
<path d="M504 1465 c-7 -18 3 -35 22 -35 20 0 30 30 13 41 -20 12 -29 11 -35
-6z"/>
<path d="M0 1411 c0 -53 10 -61 73 -61 57 0 16 76 -55 103 -16 6 -18 0 -18
-42z"/>
<path d="M830 1357 c-30 -12 -64 -27 -75 -33 -11 -6 -32 -14 -46 -17 -30 -8
-49 -43 -49 -93 0 -34 2 -35 32 -32 24 2 33 9 39 28 28 102 33 111 50 107 10
-3 20 0 23 7 3 7 12 2 22 -11 29 -40 99 -25 106 22 7 49 -19 55 -102 22z"/>
<path d="M1835 1330 c-4 -6 -2 -17 4 -23 15 -15 25 -2 13 19 -7 12 -11 13 -17
4z"/>
<path d="M98 1244 c-21 -11 -28 -22 -28 -44 0 -38 9 -60 25 -60 15 0 95 73 95
87 0 32 -48 41 -92 17z"/>
<path d="M913 1150 c-43 -32 -53 -52 -53 -113 0 -39 0 -39 36 -34 44 6 54 19
54 72 0 22 7 49 15 59 18 24 19 46 2 46 -7 0 -31 -14 -54 -30z"/>
<path d="M583 1140 c-35 -21 -49 -55 -39 -95 7 -28 28 -32 69 -12 31 14 50 53
45 93 -4 37 -31 42 -75 14z"/>
<path d="M749 1134 c-12 -32 -11 -38 3 -69 16 -36 52 -31 56 9 5 43 -6 73 -28
79 -16 4 -23 -1 -31 -19z"/>
<path d="M4520 1115 c-25 -30 8 -67 52 -57 42 10 28 72 -17 72 -12 0 -28 -7
-35 -15z"/>
<path d="M390 971 c0 -36 25 -59 48 -44 29 17 27 52 -3 63 -39 15 -45 13 -45
-19z"/>
<path d="M825 960 c-20 -39 -19 -57 6 -71 17 -9 25 -8 37 5 13 13 14 20 2 56
-16 48 -24 50 -45 10z"/>
<path d="M94 814 c-36 -54 -15 -194 29 -194 38 0 64 148 33 195 -21 32 -41 32
-62 -1z"/>
<path d="M304 775 c-7 -30 2 -75 17 -75 14 0 40 66 33 84 -10 25 -43 19 -50
-9z"/>
<path d="M611 738 c-6 -17 -5 -24 6 -26 21 -5 37 13 30 32 -9 23 -26 20 -36
-6z"/>
<path d="M506 694 c-8 -22 10 -87 33 -115 l18 -22 11 33 c15 42 7 69 -28 97
-24 20 -29 21 -34 7z"/>
<path d="M740 621 c0 -19 25 -35 40 -26 4 3 6 14 3 25 -7 26 -43 27 -43 1z"/>
<path d="M9992 505 c0 -16 2 -22 5 -12 2 9 2 23 0 30 -3 6 -5 -1 -5 -18z"/>
<path d="M60 414 c-19 -13 -40 -24 -47 -24 -10 0 -13 -43 -13 -195 l0 -195 55
0 55 0 2 63 c1 34 1 73 0 87 -1 14 -4 83 -6 154 -3 70 -6 129 -8 131 -2 2 -19
-8 -38 -21z"/>
<path d="M5088 198 c-59 -83 -65 -95 -73 -150 l-7 -48 69 0 68 0 15 67 c8 38
14 95 14 128 1 54 -1 60 -20 63 -16 2 -32 -12 -66 -60z"/>
<path d="M755 230 c-15 -25 -45 -149 -45 -187 l0 -43 44 0 43 0 7 94 c8 108 2
146 -24 146 -11 0 -22 -5 -25 -10z"/>
<path d="M6020 126 c0 -35 3 -78 6 -95 l7 -31 83 0 c46 0 84 2 84 5 0 3 -6 20
-14 38 -14 35 -131 147 -153 147 -9 0 -13 -17 -13 -64z"/>
<path d="M4299 114 c-14 -18 -29 -82 -22 -100 3 -9 22 -14 54 -14 56 0 61 10
33 79 -16 42 -46 58 -65 35z"/>
<path d="M5761 104 c-12 -15 -21 -37 -21 -50 0 -12 -3 -29 -6 -38 -5 -14 4
-16 61 -16 74 0 74 0 38 78 -23 49 -47 58 -72 26z"/>
<path d="M1485 10 c-3 -5 -1 -10 4 -10 6 0 11 5 11 10 0 6 -2 10 -4 10 -3 0
-8 -4 -11 -10z"/>
</g>
</svg>
